<?xml version="1.0" encoding="utf-8"?>
<!-- Generator: Adobe Illustrator 24.1.1, SVG Export Plug-In . SVG Version: 6.00 Build 0)  -->
<svg version="1.1" id="Слой_1" xmlns="http://www.w3.org/2000/svg" xmlns:xlink="http://www.w3.org/1999/xlink" x="0px" y="0px"
	 viewBox="0 0 2000 1622" style="enable-background:new 0 0 2000 1622;" xml:space="preserve">
<style type="text/css">
	.st0{display:none;}
	.st1{display:inline;}
	.st2{fill:#58C9E9;}
	.st3{fill:#18AAB4;}
	.st4{fill:#EB4457;}
	.st5{fill:#03A8CB;}
	.st6{fill:#1AA8B0;}
	.st7{fill:#E81E3F;}
	.st8{fill:#EC2038;}
	.st9{fill:#188FA6;}
	.st10{fill:#ED4139;}
	.st11{fill:#138BA2;}
	.st12{fill:#EE5931;}
	.st13{fill:#F49B25;}
	.st14{fill:#2D7A8B;}
	.st15{fill:#D61F45;}
	.st16{fill:#EA1F46;}
	.st17{fill:#DA3826;}
	.st18{fill:#0F577E;}
	.st19{fill:#07537B;}
	.st20{fill:#F59327;}
	.st21{fill:#FAB115;}
	.st22{fill:#F1732A;}
	.st23{fill:#1AB6CF;}
	.st24{fill:#901A33;}
	.st25{fill:#209CB0;}
	.st26{fill:#3CC3EB;}
	.st27{fill:#16B8D2;}
	.st28{fill:#03A8CC;}
	.st29{fill:#EE5930;}
	.st30{fill:#F59B25;}
	.st31{fill:#18ACB8;}
	.st32{fill:#D61E45;}
	.st33{fill:#EB1E49;}
	.st34{fill:#DA3726;}
	.st35{fill:#0E587F;}
	.st36{fill:#08537B;}
	.st37{fill:#F59326;}
	.st38{fill:#F17329;}
	.st39{fill:#24B5CC;}
	.st40{fill:#901933;}
	.st41{fill:#259CAF;}
	.st42{fill:#3BC4EC;}
</style>
<g id="Слой_1_1_" class="st0">
	<g class="st1">
		<g>
			<path class="st2" d="M1526.7,1072.4c-25.6,0.1-51.1,0.1-76.7,0.2c-2.7-11.8-5.1-23.8-8.2-35.5c-15.5-59-31.1-117.8-46.7-176.8
				c-0.1-1.7-0.2-3.5-0.2-5.2l0.6-0.2c0.9-0.9,1.8-1.7,2.7-2.6c20.6-13.9,41.2-27.6,61.6-41.8c30.8-21.4,61.3-43.1,91.9-64.6
				c9.7-1.7,19.4-3.5,29.1-5.2c-3.1,19.6-6.1,39.1-9.2,58.7c-9.6,59.5-19.2,119.1-29,178.6C1537.5,1009.4,1532,1040.9,1526.7,1072.4
				z"/>
			<path class="st3" d="M1395.2,860.3c15.6,58.9,31.2,117.8,46.7,176.8c3.1,11.7,5.5,23.7,8.2,35.5c-68.3,0-136.6,0-204.8-0.1
				c-8.9-7-17.6-14.2-26.7-21c-17.2-13-34.5-25.7-51.7-38.6c16.5-11.6,33-23.3,49.6-34.8c50.4-34.9,100.8-70,151.5-104.5
				C1376.2,868,1386.1,864.7,1395.2,860.3z"/>
			<path class="st4" d="M1580.9,740.7c-9.7,1.7-19.4,3.5-29.1,5.2c-24.4,2.5-48.8,4.5-73,7.5c-20.5,2.5-41,6-61.4,9
				c0.1-4.1-0.3-8.3,0.4-12.2c9.5-47.2,19.3-94.3,28.7-141.4c6.1-30.4,11.6-60.9,17.3-91.4c1.8-0.9,3.6-1.9,5.4-2.8
				c3.6,2.8,7.2,5.5,10.8,8.3c0.4,1.3,0.4,3,1.3,3.7c29.8,25.9,59.6,51.9,89.8,77.3c7,5.8,15.6,9.7,23.5,14.4
				c2.6,1.1,5.2,2.2,7.8,3.3c-1.9,1-3.8,2.1-6.4,3.5c13.5,11.6,26.9,22.8,39.9,34.5c21.8,19.6,43.3,39.5,64.9,59.3
				c-8.2,2-16.4,4-24.6,5.9c-10,1.6-20.1,3.4-30.1,4.7c-17.7,2.3-35.5,4.2-53.2,6.5c-1.7,0.2-3.1,2.7-4.6,4.1
				C1585.8,740.4,1583.4,740.5,1580.9,740.7z"/>
			<path class="st5" d="M1676.2,724.9c8.2-2,16.4-4,24.6-5.9c2.6,1.3,5.6,2.2,7.8,4.1c11.4,9.3,22.6,18.9,33.8,28.3
				c10.4,8.3,20.9,16.5,31.4,24.8c3.1,4.2,6.1,8.4,9.2,12.7c14.1,11.4,28.4,22.4,42.1,34.3c18.1,15.7,35.5,32.1,53.2,48.2
				c-1.4,2.2-2.6,4.7-4.3,6.5c-55,55.1-110.1,110.1-165.2,165.2c-1.8-2.7-3.6-5.4-5.3-8.1c-1.8-19.7-3.8-39.3-5.3-59
				c-2.1-26.9-3.7-53.8-5.8-80.6c-1.6-19.7-3.8-39.3-5.6-59C1683.1,799,1679.7,761.9,1676.2,724.9z"/>
			<path class="st6" d="M1703.4,1034.8c1.8,2.7,3.6,5.4,5.3,8.1c1,2.7,2,5.3,3,8c-15.9-1-22.4,11.2-30.1,21.6
				c-51.7,0-103.3-0.1-154.9-0.1c5.3-31.5,10.8-62.9,15.9-94.4c9.8-59.5,19.4-119,29-178.6c3.2-19.5,6.2-39.1,9.2-58.7
				c2.5-0.2,5-0.3,7.5-0.5c11.2,28.2,22.7,56.4,33.6,84.7c19.3,50,38.1,100.1,57.4,150.1C1687.1,995.1,1695.4,1014.9,1703.4,1034.8z
				"/>
			<path class="st7" d="M277.6,1030c-31.1-27.5-51.2-61.5-61.4-101.6c24.3-17.4,48.5-34.9,75.3-54c-25.2-9.4-46.7-17.5-68.4-25.5
				c-8.2-3-14.6-6.9-12.7-17.4c0.8-4.4,0.1-9,0.2-13.5c2.9-25.9,11.7-49.8,24.7-72.2c22.3,4,44.6,8,66.9,12.1c10,1.8,20,4,30.1,5.7
				c21,3.6,41.9,7,62.9,10.4c4.1,1.6,8.2,3.4,12.4,4.8c5.2,1.8,10.5,3.3,15.8,5c-1.9,3.8-3.8,7.5-5.7,11.3c-0.5-2.4-1-4.8-1.5-7.3
				c-38.6,27.4-76.5,54.3-115.3,81.9c8.4,14.6,24.7,16.8,38.2,23.4c3.5,1.7,7,3.6,10.5,5.4c-4.5,10-9,20.1-13.6,30.1
				c-1.4,4.6-2,9.6-4.2,13.7c-8.2,14.9-16.6,29.8-25.6,44.2C297.1,1001.3,287.2,1015.6,277.6,1030z"/>
			<path class="st8" d="M417.7,795.1c1.9-3.8,3.8-7.5,5.7-11.3c2.6,0.2,5.3,0.5,8,0.7c1.5,1.6,2.9,3.4,4.6,4.9
				c40.8,35.6,81.6,71.3,122.6,106.8c41,35.5,82.3,70.6,123.2,106.2c13.9,12.1,27.2,25,40.7,37.5c-2.6,0-5.2,0.1-7.8,0.1
				c-4-2.8-7.6-6.5-12-8.2c-23.8-9.3-47.9-17.9-71.8-27.1c-20.4-7.9-40.6-16.3-60.8-24.5c1.4-3.5,2.9-7.1,4.6-11.3
				c-4.4,2.3-8.2,4.4-12.1,6.5c-4.5-0.5-9.3-0.1-13.3-1.6c-30.8-11.4-61.4-23.2-92-34.8c-29.9-11.3-59.9-22.3-89.5-34.1
				c-9.8-3.9-14.4-1.5-18.6,7.8c-2.8,6.1-8.6,10.8-13,16.1c4.5-10,9-20.1,13.6-30.1c4.6-3.5,10.1-6.3,13.6-10.7
				c4-5.1,5.9-11.7,9.3-17.4C387.5,845.3,402.7,820.2,417.7,795.1z"/>
			<path class="st9" d="M1395.2,860.3c-9.1,4.4-19,7.7-27.3,13.3c-50.7,34.5-101,69.6-151.5,104.5c-16.6,11.5-33.1,23.2-49.6,34.8
				c-1,0-1.9,0.1-2.9,0.1c-4.7-15.9-9.2-31.9-14.2-47.7c-1.9-5.9-4.8-11.4-7.3-17.1c3.9-26.7,7.5-53.4,12-80
				c3.7-21.8-1.8-30.2-23.5-33.1c-7.3-1.9-18.1,6.5-21.5-7.2c22.4-0.6,45.3,1.1,65.7-11.2c3,0.9,6,2.1,9.1,2.7
				c69.6,11.9,139.2,23.8,208.8,35.7l1,0.1l1,0C1395,856.8,1395.1,858.5,1395.2,860.3z"/>
			<path class="st10" d="M336.1,928.7c4.4-5.3,10.3-10,13-16.1c4.2-9.3,8.8-11.7,18.6-7.8c29.7,11.8,59.7,22.8,89.5,34.1
				c30.7,11.6,61.3,23.4,92,34.8c4.1,1.5,8.9,1.1,13.3,1.6c-12.1,10.3-23,22.4-36.4,30.6c-60.5,36.9-120.7,35.5-179.5-4.9
				c-1.4-1-3.2-1.3-4.9-1.9c-2-1.7-4-3.3-6-5c-0.5,0.5-1,1-1.5,1.5c1.8,1.9,3.5,3.8,5.3,5.7c21.4,18.4,42.9,36.8,64.3,55.2
				c-7.8,1-15.6,2.3-23.5,2.9c-15.9,1.2-31.8,2-47.8,2.9c-15.3-8-30.8-15.8-46-24.1c-3.5-1.9-6.1-5.3-9.1-8
				c9.6-14.5,19.5-28.7,28.6-43.4c9-14.5,17.4-29.3,25.6-44.2C334.1,938.3,334.7,933.3,336.1,928.7z"/>
			<path class="st9" d="M619.6,356.9c-10.3,18.9-20.5,37.8-30.8,56.6c1.5,1.1,3,2.3,4.5,3.4c3.2-2.9,6.7-5.4,9.4-8.6
				c24.9-29.7,52.7-56.1,90.9-67.4c16.3-4.8,33.8-5.3,50.8-7.7c1.2,5.1,2.3,10.2,3.7,15.2c6.5,24,13,47.9,19.4,71.9
				c-0.9,2.5-2.9,5.3-2.4,7.6c4.8,22.6,10,45,15.1,67.5c-0.9,0-1.8,0-2.7,0c-1.8-3.5-3.1-9.6-5.6-10.2c-21.1-4.4-42.4-7.8-63.6-11.4
				c-36.3-6.1-72.6-12.2-108.9-18.1c-31.4-5.1-62.9-10-94.3-15c-9.2-7.8,2-10.2,4.5-12c27.4-19.5,55.3-38.5,83.4-57.1
				C601.4,366.1,610.7,361.8,619.6,356.9z"/>
			<path class="st8" d="M1275.4,345.8c18.1-13.2,37.2-23.8,60.4-24.6c28.3,1.3,52.2,16.6,78,25.5c39,13.4,76.9,30.1,115.3,45.4
				c0,1.8,0,3.6,0,5.5c-0.7,3.4-0.6,7.3-2.3,10.1c-15.4,27.6-31.2,55-46.8,82.4c-12.1,1.6-16.3,10-10.9,21.8
				c-5.4-1-10.8-1.9-16.3-2.9c2.1-0.2,4.2-0.3,8.8-0.7c-6.1-5.3-10.5-9.1-14.8-12.9c-19.1-17.2-38.1-34.4-57.1-51.6
				c10-16.8,20.1-33.6,29.8-49.9c-22.3,1.3-43.8,2.5-65.3,3.8c-15.3,1.7-27.4-2.8-38.3-14.7C1303.8,369.4,1289.1,358.1,1275.4,345.8
				z"/>
			<path class="st11" d="M395.3,774c-21-3.5-42-6.9-62.9-10.4c-10.1-1.7-20-3.9-30.1-5.7c-22.3-4.1-44.6-8.1-66.9-12.1
				c12.1-25.1,30.4-45,51.9-62.2c29.9-1,59.7-1.8,89.6-2.9c17.1-0.7,34.3-1.9,51.4-3.1c37.8-2.5,75.6-5.3,113.4-7.5
				c3-0.2,6.2,3.2,9.3,4.9c-4.9,2.2-10.2,3.8-14.7,6.7c-24,15.8-47.9,31.7-71.7,47.9c-21.1,14.3-42,29-62.9,43.6
				C399.6,773.4,397.4,773.7,395.3,774z"/>
			<path class="st12" d="M1275.4,345.8c13.7,12.3,28.4,23.6,40.7,37.1c10.9,12,23,16.5,38.3,14.7c-7.1,0.6-14.2,1.6-21.4,1.7
				c-56.2,0.4-112.6-1-167.2,16.2c-11.6-2.9-23.1-5.9-34.7-8.5c-7.3-1.6-14.7-2.7-22-4c-1.7-1.8-3.3-3.6-5-5.4
				c15.4-36.4,30.9-72.7,46.3-109.1c15.5-3.5,31-7,46.5-10.5c3.5,3.5,6.7,7.1,10.4,10.3c18.9,16.4,37.9,32.7,56.9,49
				c-7.2,11.1-14.5,22.1-21.7,33.2c0.6,0.5,1.2,0.9,1.8,1.3C1254.7,363.3,1265,354.6,1275.4,345.8z"/>
			<path class="st7" d="M1469.2,511.9c-5.4-11.8-1.2-20.2,10.9-21.8c-1.7,3.8-3.4,7.5-6.4,13.9c5.3-2.2,8.3-2.8,10.5-4.4
				c18.6-13,37.1-26.2,55.6-39.4c13.8-9.9,27.6-19.6,40.9-30.1c6.8-5.4,11.9-9.3,14.6,2.9c0.6-0.5,1.3-0.9,1.8-1.4
				c0.3-0.3,0.2-0.9,0.3-1.3c0.3,0.3,1,0.6,1,0.9c-1.3,27.8,16.2,41.1,36.9,56c35.4,25.5,63.8,58.5,79.4,100.6c-2,0.9-4.3,3-5.9,2.5
				c-7.5-2.2-14.7-5.2-22.1-7.7c-15.9-5.3-31.9-10.5-47.8-15.9c-11-3.7-21.8-7.9-32.9-11.3c-24.4-7.5-49.1-14.5-73.5-22.1
				c-14.7-4.6-28.9-10.5-43.7-15c-2.2-0.7-5.8,2.9-8.7,4.5c-3.6-2.8-7.2-5.5-10.8-8.3C1469.2,513.7,1469.2,512.8,1469.2,511.9z"/>
			<path class="st13" d="M767.5,420.3c-6.5-24-13-47.9-19.5-71.9c-1.4-5-2.5-10.1-3.7-15.2c12.7,1.9,25.5,4,38.2,5.7
				c4.3,0.6,8.7,0.1,13.3-1.6c-17.4-16.2-38-24.9-60-31c-2.4-7.7-4.8-15.5-7.2-23.2c1.7,0,3.4,0,5.1-0.1c1.8,0.1,3.7-0.3,5.4,0.3
				c29.3,9.1,58.7,18.1,87.9,27.7c19.8,6.5,39.4,14,59.1,21c-1.8,12.4-5.2,24.8-4.9,37.2c0.4,20.1,3.2,40.2,5,60.2
				c-12.7,7.6-25.3,15.2-38,22.8C821.3,441.7,794.4,431,767.5,420.3z"/>
			<path class="st5" d="M412.4,591.1c20.4-25.7,15.9-56,16.4-85.5c0.1-7.1,1.8-14.1,2.7-21.1c20.8-14.5,41.6-28.9,62.5-43.4
				c1.8,0,3.6,0,5.5,0.1c9.2,37.1,18.3,74.2,27.6,111.3c7.1,28.3,14.3,56.5,21.5,84.8l0,0c-4.5-0.2-11.6,1.3-13-1
				c-10-15-28-6.1-40.2-14.6c-5.8-4-14.1-4.2-21.2-6.2c-18.8-5.4-37.7-10.7-56.4-16.6C415.3,598.1,414.1,593.8,412.4,591.1z"/>
			<path class="st10" d="M1529.1,392.1c-38.4-15.3-76.3-31.9-115.3-45.4c-25.8-8.9-49.7-24.2-78-25.5c25.2-5.9,47.9,2.6,70.3,12.6
				c2.9,1.3,5.7,2.6,8.6,4c1.4,1.4,2.9,2.7,4.3,4.1c0.5-0.6,1-1.2,1.5-1.8c-1.5-1.4-3-2.7-4.5-4c-16-19.2-36.4-31.8-60.2-40.1
				c66.1-38.6,157.7-17.6,205.7,52.8c-5.4,9-10.3,18.3-16.4,26.8C1540.5,381.6,1534.4,386.6,1529.1,392.1z"/>
			<path class="st14" d="M1711.8,1050.9c-1-2.7-2-5.3-3-8c55.1-55,110.2-110.1,165.2-165.2c1.8-1.8,2.9-4.3,4.3-6.5
				c2.6,1.8,5.1,3.5,7.7,5.3c0.6,79.9-57.2,163.9-128.2,186.3c-3.4,1.1-7,1.4-10.5,2.1c-11-4.6-21.9-9.2-32.9-13.8
				C1713.5,1051,1712.6,1050.9,1711.8,1050.9z"/>
			<path class="st3" d="M412.4,591.1c1.7,2.7,2.9,7,5.2,7.7c18.7,5.9,37.5,11.2,56.4,16.6c7.1,2,15.5,2.2,21.2,6.2
				c12.2,8.5,30.3-0.4,40.2,14.6c1.5,2.2,8.6,0.7,13,1c3.6,10.9,7.2,21.7,10.8,32.6c-2.8,1.7-5.5,3.5-8.3,5.2
				c-3.1-1.7-6.3-5.1-9.3-4.9c-37.8,2.2-75.6,4.9-113.5,7.5c-17.1,1.1-34.3,2.4-51.4,3.1c-29.8,1.2-59.7,2-89.6,2.9
				c30.4-24.6,64.9-37.2,103.3-35.8C398.1,628.4,405.3,609.7,412.4,591.1z"/>
			<path class="st15" d="M1886,876.6c-2.6-1.8-5.1-3.5-7.7-5.3c-17.7-16.1-35.2-32.5-53.2-48.2c-13.6-11.9-28-22.9-42.1-34.3
				c-2.1-22.5-4.1-45-6.2-67.5c0.3-1.7,0.7-3.4,1-5.1c11.7,6.1,15.7-5.2,22.8-9.9c5.3-3.5,11.1-6.2,16.7-9.2
				c36,31,56.9,70.9,65.2,116.9C1886.3,834.4,1885,855.7,1886,876.6z"/>
			<path class="st16" d="M1480,522.8c2.9-1.6,6.5-5.2,8.7-4.5c14.7,4.5,29,10.4,43.7,15c24.4,7.7,49,14.6,73.5,22.1
				c11.1,3.4,21.9,7.6,32.9,11.3c15.9,5.3,31.9,10.5,47.8,15.9c7.4,2.5,14.6,5.5,22.1,7.7c1.6,0.5,3.9-1.6,5.9-2.5
				c7.3,16.4,14.6,32.9,23.1,51.8c-6.6-0.5-9.2,0.2-10.6-0.8c-38.4-27.5-81.1-29.9-125.6-21.2c-2.2,0.4-4.5,0.5-6.8,0.7
				c-7.9-4.8-16.6-8.6-23.5-14.4c-30.2-25.4-60-51.4-89.8-77.3C1480.5,525.8,1480.4,524.1,1480,522.8z"/>
			<path class="st3" d="M499.4,441.1c-1.8,0-3.6,0-5.5-0.1c0.1-4.3,1-8.8,0-12.8c-4.3-17.5-9.1-34.9-13.7-52.4
				c46.9-58.8,122.6-76.6,171.7-57.5c-9,10.9-19.2,23.3-29.4,35.7c-1.1,1-2.1,1.9-3.2,2.8l0.2,0c-8.9,4.9-18.2,9.1-26.7,14.7
				c-28,18.7-55.9,37.6-83.4,57.1c-2.5,1.8-13.7,4.3-4.5,12C503.2,440.9,501.3,441,499.4,441.1z"/>
			<path class="st17" d="M853.1,914.9c2,12.1,4.1,24.1,6.1,36.2c-2.6,3.8-4.4,8.8-8,11.2c-23,15.1-46.5,29.6-69.6,44.5
				c-17,10.9-33.9,22.2-50.8,33.2c-0.8,0-1.7,0-2.5,0c10.8-27.5,21.7-55,32.5-82.6c8.3-21.3,16.4-42.7,24.6-64c1-0.2,2-0.4,3-0.5
				l0.2,0.3c5.5,2.6,10.9,5.7,16.7,7.6C821.1,905.7,837.2,910.2,853.1,914.9z"/>
			<path class="st18" d="M1558.4,1314.4c-24.9,2.2-24.8,2.2-33.1-18.2c-9.8-24.1-19.7-48.1-32.3-71.8c0,21.9,0,43.8,0,65.7
				c0,4.1,1.3,8.8-0.4,12.1c-2.4,4.9-7,8.7-10.6,12.9c-3.2-4.2-8.9-8.2-9.3-12.7c-1.3-13.5-0.5-27.2-0.5-40.8c0-25.4,0-50.7,0-75.9
				c21.3-5.8,24.3-4.4,31.9,14.3c10.2,25.1,20.3,50.1,33.2,75c0-23-0.2-46.1,0.1-69.1c0.1-8.5-3.3-21,10-21.3
				c14.7-0.3,10.7,13.1,10.8,21.8C1558.6,1242.1,1558.4,1277.9,1558.4,1314.4z"/>
			<path class="st10" d="M570.1,980.1c20.3,8.2,40.5,16.6,60.8,24.5c23.8,9.2,48,17.8,71.8,27.1c4.4,1.7,8,5.4,12,8.2
				c-17.4,1.8-34.7,3.7-52.1,5.5c-18.5,0.2-37.1,0.1-55.6,0.8c-35,1.3-70.1,3.1-105.1,4.6C529.5,1032,550.8,1006.9,570.1,980.1z"/>
			<path class="st19" d="M493.1,1183.6c19.8,0,37.5-0.4,55.2,0.1c19.2,0.5,29.2,10.1,30.2,27.7c1.2,20.7-7.4,31.1-27.9,34
				c-1.3,0.2-2.5,0.6-5.6,1.4c8.7,14.4,16.9,28.2,25.1,41.9c2.1,3.5,5.5,6.9,5.9,10.5c0.5,4.6-1.6,9.4-2.6,14.1
				c-4.2-1.8-10.2-2.3-12.4-5.5c-11.9-17.6-22.6-36-34.1-53.9c-2.4-3.8-6.5-6.6-9.8-9.8c-1.3,0.7-2.5,1.5-3.8,2.2
				c0,8.9,0,17.8,0,26.7c0,7.7,1,15.6-0.3,23.1c-1.2,7,1.9,18.6-9.9,18.5c-11.9-0.1-9.9-10.8-9.9-18.7
				C493.1,1259,493.1,1222,493.1,1183.6z M513.7,1225.3c11.9,0,24,0.7,36-0.4c3.2-0.3,8.4-5.9,8.3-8.9c-0.2-4.1-4.2-11.3-7.1-11.6
				c-12.7-1.3-25.6-0.6-38.8-0.6C512.7,1212,513.1,1217.9,513.7,1225.3z"/>
			<path class="st17" d="M1150.5,288.6c-15.4,36.4-30.9,72.7-46.3,109.1c-28.9-8.9-57.9-17.9-86.8-26.8c-2.8-7.5-5.6-14.9-8.3-22.4
				c14.5-8.3,29.1-16.5,43.6-24.8c3.3,4.6,6.7,9.3,11,15.2C1090.1,318,1116.3,296.3,1150.5,288.6z"/>
			<path class="st20" d="M733.8,283.2c-1.7,0-3.4,0-5.1,0.1c-0.3-1.7-0.7-3.4-1.1-5.1c32.2-17,64.3-33.9,96.5-50.9
				c-1-0.9-2-1.8-3-2.7c34.9-6,69.6-6.9,104.8,4.9c-7.1,15.9-13.8,30.8-20.5,45.7c-5.3-1.7-10.6-4.3-16-4.8
				c-5.2-0.5-10.6,1.7-15.9,2c-43.1,2.3-86.1,4.3-129.2,6.7C740.8,279.1,737.3,281.7,733.8,283.2z"/>
			<path class="st19" d="M929.4,1188.7c3.9-1.3,9.4-4.7,11.2-3.3c3.3,2.5,6,7.9,6.1,12.1c0.5,38,0.3,76,0.3,114.6
				c-8,1.4-15.7,2.7-24.3,4.2c-12.7-31.1-25-61.2-37.4-91.3c-1.2,0.2-2.5,0.4-3.7,0.6c0,13.7,0,27.3,0,40.9
				c0,11.8,0.7,23.6-0.3,35.3c-0.4,4.5-4.6,8.7-7,13c-4-2.6-8-5.3-12-7.9c0.7-4.3,2-8.7,2-13c0.2-24.4,0.1-48.8,0.1-73.2
				c0-10.7,0-21.4,0-31.9c8.5-1.3,15.1-2.4,21.6-3.4c11,26.2,21.9,52.4,33.2,78.5c2,4.7,5.3,8.9,7.9,13.3c0.8-0.1,1.5-0.2,2.2-0.4
				c0.3-0.1,0.4-0.8,0.4-1.2C929.7,1246.6,929.6,1217.6,929.4,1188.7z"/>
			<path class="st16" d="M1742.5,751.3c-11.3-9.5-22.5-19-33.8-28.3c-2.2-1.8-5.2-2.7-7.8-4.1c-21.6-19.8-43.1-39.7-64.9-59.3
				c-13-11.7-26.4-22.8-39.9-34.5c2.6-1.5,4.5-2.5,6.4-3.5c31,4.2,60.8,12.1,87.4,29.4c30.3,19.7,54,45,68.1,78.8
				c0.4,4.8,0.8,9.7,1.4,16.1C1753.9,747.6,1748.2,749.5,1742.5,751.3z"/>
			<path class="st19" d="M632,1205.1c-3.3-0.7-6.8-0.3-8.2-1.9c-3-3.2-6.8-7.4-6.8-11.3c0-2.7,5.5-7.6,8.8-7.8
				c12.2-0.7,24.5-0.5,36.6,0.7c4.5,0.4,9.3,3.7,12.8,7c22.5,21.2,29.2,59,15.7,86.5c-0.6,1.2-1.1,2.5-1.7,3.7
				c-17.4,38.3-19.8,33.3-63,32.7c-3.4,0-9-5.3-9.4-8.7c-0.4-3.1,4.8-7,7.6-10.4c2.5-3,7.3-5.7,7.3-8.6
				C632.2,1260,632,1232.8,632,1205.1z M652.7,1204.5c0,30.1,0,60.1,0,90.2c9.9-3,28.4-34.1,28-46.1
				C680.4,1236,662,1206.7,652.7,1204.5z"/>
			<path class="st18" d="M332.4,1253.4c0,13.1,0.7,24.4-0.2,35.6c-1.3,16.5-11.9,25.8-28.6,26.3c-9.1,0.3-18.1,0.1-27.2,0
				c-17.8-0.1-29-10-29.9-27.8c-0.8-14-0.9-28.2,0-42.2c2.4-35.2,40.2-66.4,74.6-61.3c4.3,0.6,7.9,6.7,11.8,10.2
				c-4.2,3.2-9.2,9.8-12.5,9.1c-27.5-6.1-41,13.3-48.5,31.8c-6.6,16.4-3,37-3.2,55.8c0,1.4,5.7,3.7,8.9,4.1
				c5.4,0.7,10.9,0.2,16.3,0.2c18.5,0,18.5,0,17-20.8c-4.1-0.3-9,0.7-12.6-1.1c-4.2-2.1-7.3-6.4-10.9-9.8c3.6-3.4,6.9-9.2,10.8-9.7
				C308.8,1252.5,319.8,1253.4,332.4,1253.4z"/>
			<path class="st19" d="M1783.9,1295.3c-20.6-26.4-38.9-49.3-56.5-72.7c-4.1-5.5-7.8-12.7-8.1-19.3c-0.5-11.5,7.1-18.6,18.6-19.1
				c14.5-0.7,29-0.7,43.5,0c11.8,0.5,19.5,7.9,21.7,19.1c0.8,4.1-3.2,9.1-5.1,13.7c-4.4-2-8.8-3.8-13.1-5.9
				c-4.3-2.2-8.4-6.4-12.8-6.8c-10.2-1-20.6-0.3-33.8-0.3c13.3,17,25.1,32.2,36.9,47.3c7.8,10,16.8,19.3,23.1,30.2
				c3.6,6.2,5.7,16.4,2.9,22.1c-2.8,5.7-12.2,10.5-19.2,11.4c-13.8,1.8-28.1,0.9-42.1,0.4c-11.3-0.4-22.2-13-20.7-24
				c0.4-3.1,2.7-7.6,5.1-8.4c3.3-1,10.2-0.1,10.9,1.7c5.6,15.1,18.1,10,28.6,10.6C1769,1295.6,1774.4,1295.3,1783.9,1295.3z"/>
			<path class="st21" d="M501.9,1050.8c35-1.6,70.1-3.3,105.1-4.6c18.5-0.7,37.1-0.6,55.6-0.8c19.2,0,38.5,0,58.3,0
				c-5.3,8.4-11.3,17.7-17.2,27c-78.7,0-157.4,0-239.6,0C474.5,1057.4,490.9,1058.5,501.9,1050.8z"/>
			<path class="st20" d="M703.8,1072.4c5.9-9.3,11.8-18.6,17.2-27c-19.8,0-39.1,0-58.3,0c17.4-1.8,34.7-3.6,52.1-5.5
				c2.6,0,5.2-0.1,7.8-0.1c1.9,0,3.9,0.1,5.8,0.1c0.8,0,1.7,0,2.5,0c47.3-2.7,94.7-5.5,142-8.2c0,4.8,0.8,9.9-0.3,14.5
				c-2,8.2-5.2,16.1-8.6,26.2C813.4,1072.4,758.6,1072.4,703.8,1072.4z"/>
			<path class="st22" d="M872.8,1031.8c-47.3,2.7-94.7,5.5-142,8.2c16.9-11.1,33.8-22.3,50.8-33.2c23.2-14.9,46.6-29.3,69.6-44.5
				c3.6-2.3,5.4-7.4,8-11.2C863.8,978,868.3,1004.9,872.8,1031.8z"/>
			<path class="st19" d="M1104.1,1184.3c21.5,0,41.8-0.7,62.1,0.2c12.7,0.6,21.2,10.3,22.6,23.1c0.5,4.5,0.2,9.1,0.4,13.6
				c1.6,48.6-10.3,40-44.9,45c-6.2,0.9-12.5,0.1-20.5,0.1c0,13.4,0.8,26-0.5,38.4c-0.4,3.7-6.3,6.9-9.6,10.4
				c-3.2-3.2-9.1-6.4-9.1-9.7C1103.9,1265.2,1104.1,1225,1104.1,1184.3z M1124.1,1246.7c11.6,0,23.3,0.8,34.9-0.4
				c3.8-0.4,9.2-5.6,9.9-9.4c1.5-7.8,1.2-16.3,0.1-24.3c-0.5-3.3-5.1-8.2-8.1-8.4c-12-1-24.1-0.4-36.8-0.4
				C1124.1,1218.8,1124.1,1232.1,1124.1,1246.7z"/>
			<path class="st18" d="M369.6,1307c1.3-5.8,1.8-8.9,2.7-11.9c9.6-32.5,19-65.2,29.3-97.5c1.6-5.1,7.3-8.9,11.1-13.3
				c4.1,4.5,10.4,8.3,12,13.6c10,32.4,19,65.2,28.3,97.8c2.1,7.5,5.4,16.2-5.4,19.1c-9.9,2.6-11.2-6.3-13.8-13.1
				c-1.8-4.8-4.1-12.5-7.1-13c-9.7-1.5-20.3-2.1-29.5,0.7c-3.9,1.2-4,12.3-7.5,17.8c-2.2,3.6-7.4,7.3-11.2,7.3
				C375.3,1314.4,372,1309.1,369.6,1307z M424,1266.1c-3.5-12.9-6.6-24.7-9.8-36.6c-0.8-0.1-1.5-0.2-2.3-0.3
				c-3.3,12.1-6.6,24.2-10.1,36.8C409.9,1266.1,416.4,1266.1,424,1266.1z"/>
			<path class="st18" d="M1252.5,1288.3c-1.9,6.2-2.6,12.5-5.7,17.1c-2.7,4.1-8.2,6.3-12.4,9.4c-2.2-5.1-7.3-11.1-6.2-15.3
				c8.3-31,17.8-61.7,26.9-92.5c1.3-4.3,1.8-9.3,4.2-12.8c2.7-4,7.3-9.4,10.9-9.3c3.6,0.1,9.1,5.6,10.3,9.8
				c8.6,27.7,16.3,55.6,24.3,83.4c2.3,8.3,5.4,16.5,6.2,25c0.3,3.7-3.5,10.1-6.7,11.1c-3,0.9-9.2-2.8-11.3-6.2
				c-3.8-5.9-4.2-17.4-8.4-18.7C1275.2,1286.4,1264.2,1288.3,1252.5,1288.3z M1280.8,1266.2c-3.5-12.8-6.8-24.8-11.1-40.7
				c-4.4,16-7.6,27.8-11.1,40.7C1266.6,1266.2,1273.2,1266.2,1280.8,1266.2z"/>
			<path class="st23" d="M1005.7,427.4c1.3,17.4,2.6,34.7,3.9,52.1c0.9,0.4,1.8,0.7,2.7,1.1c4.3-16.8,8.6-33.6,12.8-50.5
				c0.7,0.9,1.3,1.8,2,2.7c0.2-0.3,0.7-0.6,0.6-0.9c-1.8-12,6.3-13.6,15.3-15.7c12.7-3,25-7.4,37.6-11.1c5.6-1.6,11.3-2.9,18.5-4.6
				c-2.6,7.2-4.2,11.6-5.8,16.1c-27.2,37.3-54.2,74.8-81.5,112c-5.5,7.5-12,14.2-18,21.3c0-1.7-0.1-3.3-0.1-5
				c0.6-6.2,1.2-12.5,1.8-18.7c0.9-12,1.9-24.1,2.8-36.1c0.6-10.9,1.2-21.7,1.9-32.6c0.2-1,0.4-1.9,0.6-2.9
				C1002.4,445.5,1004,436.5,1005.7,427.4z"/>
			<path class="st22" d="M733.8,283.2c3.5-1.5,7-4,10.6-4.2c43.1-2.4,86.1-4.4,129.2-6.7c5.3-0.3,10.7-2.4,15.9-2
				c5.4,0.5,10.7,3.1,16,4.8c-6.5,19-12.9,38.1-19.4,57.1c-19.7-7-39.2-14.4-59.1-21c-29.2-9.6-58.5-18.6-87.9-27.7
				C737.5,282.9,735.6,283.2,733.8,283.2z"/>
			<path class="st19" d="M739.5,1312.5c0-42.5,0-85,0-128.7c24.7,0,48.6-0.5,72.4,0.4c4.1,0.2,8.1,6.2,12.1,9.6
				c-4.4,3.3-8.7,9.2-13.3,9.5c-16.6,1.2-33.4,0.5-51,0.5c0,11.9,0,23,0,35.4c7.1,0,14.2-1.4,20.3,0.5c4.4,1.3,7.6,6.9,11.3,10.6
				c-3.8,3.1-7.2,7.7-11.5,8.8c-5.9,1.5-12.5,0.4-19.9,0.4c0,12,0,23,0,36c17.3,0,34.9-0.3,52.4,0.3c3.8,0.1,9.1,3,10.6,6.1
				c1.2,2.5-2.3,7.3-3.8,11C792.5,1312.7,766,1312.6,739.5,1312.5z"/>
			<path class="st15" d="M1597.3,430.3c-0.1,0.5,0,1-0.3,1.3c-0.5,0.5-1.2,0.9-1.8,1.4c-2.7-12.2-7.8-8.3-14.6-2.9
				c-13.3,10.5-27.2,20.2-40.9,30.1c-18.4,13.2-37,26.4-55.6,39.4c-2.3,1.6-5.2,2.2-10.5,4.4c2.9-6.4,4.7-10.2,6.4-13.9
				c15.7-27.4,31.4-54.8,46.8-82.4c1.6-2.9,1.5-6.7,2.3-10.1c13.1-1.1,24.8,1.7,36.5,8.5c7.8,4.5,18.2,4.5,27.4,6.4
				c0,0-0.1,0.5-0.1,0.5c0.3,1.2,0.7,2.4,1,3.6C1595.1,421.1,1596.2,425.7,1597.3,430.3z"/>
			<path class="st18" d="M1648.6,1205.3c0,27.1,0,54.2,0,81.4c0,3.6,0,7.3,0,10.9c0.1,7.9,0.3,17-10.3,17.3
				c-10.7,0.3-10.8-8.8-10.8-16.8c0-25.8,0-51.6,0-77.4c0-4.9,0-9.9,0-20.2c-6.2,4.9-9.4,7.8-13,10.2c-3.4,2.4-7.4,6.4-10.5,5.9
				c-3.3-0.5-7.8-5.2-8.5-8.7c-1.3-7-0.4-14.4-0.4-22.8c28.3,0,56.4,0,86.1,0c0,7.1,1,14.4-0.4,21.2c-0.8,4-4.9,9.5-8.3,10.2
				c-3.2,0.7-7.8-3.9-11.4-6.5c-3.2-2.3-5.9-5.3-8.8-8C1651.1,1203.2,1649.9,1204.3,1648.6,1205.3z"/>
			<path class="st22" d="M1164,1013c1,0,1.9-0.1,2.9-0.1c17.3,12.8,34.6,25.6,51.7,38.6c9,6.8,17.8,14,26.7,21
				c-37.4,0-74.9,0-109.4,0c-2.8-9.7-5.3-18-7.5-26.4c-1-3.7-1.1-7.6-1.7-11.4c12.3-7.2,24.6-14.3,36.8-21.5L1164,1013z"/>
			<path class="st18" d="M1349.4,1315.4c0-40.9-0.3-80.2,0.4-119.5c0.1-4,6.4-7.9,9.8-11.8c3.4,4.4,9.7,8.6,9.9,13.1
				c0.9,27.1,0.5,54.3,0.5,81.5c0,4.9,0,9.8,0,16.6c17,0,32.6-0.1,48.3,0c7.3,0,16-0.7,16.3,9.6c0.3,11.2-8.9,10.5-16.7,10.5
				C1395.7,1315.4,1373.6,1315.4,1349.4,1315.4z"/>
			<path class="st24" d="M210.6,818c0,4.5,0.6,9.1-0.2,13.5c-1.9,10.5,4.4,14.4,12.7,17.4c21.6,8,43.2,16.1,68.4,25.5
				c-26.7,19.2-51,36.6-75.3,54C205.2,892.1,201.4,855.3,210.6,818z"/>
			<path class="st22" d="M1052.6,323.8c-14.5,8.3-29.1,16.5-43.6,24.8c-15.6-26.2-31.1-52.3-46.7-78.5c3.7-2,7.2-4.6,11.2-5.8
				c5.2-1.5,10.8-2,16.2-2.8C1016.4,276.5,1035.3,299.3,1052.6,323.8z"/>
			<path class="st6" d="M1093.3,416.6c1.6-4.4,3.2-8.9,5.8-16.1c-7.1,1.8-12.9,3-18.5,4.6c-12.5,3.6-24.9,8.1-37.6,11.1
				c-9,2.1-17.1,3.7-15.3,15.7c0,0.3-0.4,0.6-0.6,0.9c-0.7-0.9-1.3-1.8-2-2.7c-2.6-19.7-5.2-39.5-7.8-59.2
				c28.9,8.9,57.9,17.9,86.8,26.8c1.7,1.8,3.3,3.6,5,5.4c5.8,10.4,11.5,20.7,17.3,31.1c-15.8,13.2-31.6,26.3-47.4,39.5
				c0.4-5.2,0.1-10.6,1.4-15.6C1084.3,444.1,1088.9,430.4,1093.3,416.6z"/>
			<path class="st23" d="M900.1,459.8c17.2,24.9,34.5,49.9,54.7,79.2c9.1-22.2,16.8-41,24.5-59.8c1.3-1,2.6-2.1,5.2-4.2
				c0,8.5,0,15.9,0,23.3c0.1,0.9,0.2,1.8,0.4,2.8c-0.3,5.3-0.5,10.6-0.8,15.8c-1.1,5.5-2.3,11.1-3.4,16.6c-0.7,4.5-1.3,9-2,13.5
				c-1.3,4.6-2.6,9.2-3.9,13.7c-0.5,3.5-1.1,7.1-1.6,10.6c-0.7,2-1.4,3.9-2,5.8c-2.1,5.1-4.1,10.2-6.4,15.8
				c-3.1-3.9-5.6-7.1-8.1-10.2c-1.6-2-3.2-4-4.8-6c-2-3.4-4.1-6.9-6.1-10.3c-1.6-2-3.2-4-4.9-6c-0.1-1.7-0.2-3.4-0.3-5.1
				c0.5-2.6,2-5.5,1.3-7.9c-9.5-36.6-32.4-62.8-64.5-81.6C884.7,462.8,890.6,454.7,900.1,459.8z"/>
			<path class="st23" d="M998.2,834.8c-41,0.3-82,0.6-123,0.8c-22.9,0.2-28.8,5.4-30.7,27.7c-2.5,5.8-3.8,15.3-7.9,16.8
				c-15.5,5.7-32,8.8-48,13l-0.2-0.3c1.8-3.5,3.6-7,5.4-10.5c11.2-15.1,22.1-30.4,33.8-45.2c3.2-4.1,8.8-8.9,13.3-9
				c59.6-0.6,119.2-0.4,182.7-0.4C1012.5,830.8,1005.3,832.8,998.2,834.8z"/>
			<path class="st2" d="M480.3,375.9c4.6,17.5,9.4,34.8,13.7,52.4c1,4,0,8.5,0,12.8c-20.8,14.5-41.6,28.9-62.5,43.4
				C438.6,444.1,453.2,407.2,480.3,375.9z"/>
			<path class="st8" d="M1264.3,337.5c-19-16.3-38-32.6-56.9-49c-3.7-3.2-6.9-6.9-10.4-10.3c13.6,0,27.1,0,40.6,0
				c2.9,1.7,5.8,3.7,8.9,5c17.9,7.4,35.9,14.6,53.8,21.8C1288.3,315.8,1276.3,326.7,1264.3,337.5z"/>
			<path class="st7" d="M1593.1,412.5c-9.2-2-19.6-2-27.4-6.4c-11.8-6.8-23.4-9.6-36.5-8.5c0-1.8,0-3.6,0-5.5
				c5.3-5.5,11.4-10.5,15.9-16.6c6.1-8.5,11-17.8,16.4-26.8C1571.9,370,1582.5,391.3,1593.1,412.5z"/>
			<path class="st25" d="M998.2,834.8c7.2-2,14.3-4,25.3-7c-63.5,0-123.1-0.2-182.7,0.4c-4.5,0-10.1,4.9-13.3,9
				c-11.7,14.7-22.6,30-33.8,45.2c6-16.7,11.9-33.5,18.2-50.1c2.6-7.1,6-13.8,9-20.8c10.9,11.1,24,13.9,39.4,13.8
				c68.9-0.5,137.8,0.1,206.8,0.2c-3.8,3.2-7.6,6.4-11.4,9.6C1036.4,834.9,1017.3,834.9,998.2,834.8z"/>
			<path class="st16" d="M1817.4,697.1c-5.6,3-11.4,5.7-16.7,9.2c-7.1,4.7-11.1,16-22.8,9.9c-0.3,1.7-0.7,3.4-1,5.1
				c-5.1-13.3-10.8-26.5-14.9-40c-1.4-4.5,1.2-10.2,2.8-20.2C1784.7,674.7,1801,685.9,1817.4,697.1z"/>
			<path class="st25" d="M788.5,893.1c16.1-4.1,32.5-7.2,48-13c4.1-1.5,5.3-11,7.9-16.8c2.9,17.2,5.8,34.4,8.7,51.6
				c-16-4.7-32-9.2-47.9-14.3C799.5,898.8,794.1,895.7,788.5,893.1z"/>
			<path class="st21" d="M332.7,1062.2c15.9-1,31.9-1.8,47.8-2.9c7.9-0.6,15.7-1.9,23.5-2.9c7.1,2.3,14.2,4.7,25.7,8.4
				c-7.7,3.8-12,7.8-16.1,7.6c-25.4-1.3-50.8-3.6-76.1-5.8C335.7,1066.4,334.3,1063.7,332.7,1062.2z"/>
			<path class="st13" d="M1142.5,948.2c2.5,5.7,5.4,11.2,7.3,17.1c5,15.8,9.5,31.8,14.2,47.7c0,0-0.5,0.2-0.5,0.2
				c-10.4-3.7-20.9-7.4-31.3-11.2C1135.6,984.1,1139,966.2,1142.5,948.2z"/>
			<path class="st22" d="M821.2,224.4c1,0.9,2,1.8,3,2.7c-32.2,17-64.3,33.9-96.5,50.9c-2-0.7-4-1.4-6-2.1
				C750.4,250.3,783.8,233.5,821.2,224.4z"/>
			<path class="st6" d="M900.1,459.8c-9.4-5.1-15.3,2.9-22.6,6.1c-9.7-4.5-19.5-9-29.2-13.6c12.7-7.6,25.3-15.2,38-22.8
				C890.8,439.6,895.5,449.7,900.1,459.8z"/>
			<path class="st25" d="M1005.7,427.4c-1.7,9.1-3.3,18.1-5,27.2c-1.7-11.1-3.4-22.3-5.1-33.4c-1.9-6.4-3.9-12.7-5.8-19.1
				c-2.7-3-5.4-6.1-8-9.1c2.2-0.2,4.3-0.4,6.9-0.7c-2.1-9.3-4-18.2-6-27.1c3.3-0.5,6.6-0.9,9.8-1.4
				C996.8,385,1001.3,406.2,1005.7,427.4z"/>
			<path class="st25" d="M721.7,275.9c2,0.7,4,1.4,6,2.1c0.3,1.7,0.7,3.4,1.1,5.1c2.4,7.7,4.8,15.5,7.2,23.2
				c-13.8-0.7-27.6-1.4-42.3-2.2C703.1,294.6,712.4,285.3,721.7,275.9z"/>
			<path class="st13" d="M1055.6,835c3.8-3.2,7.6-6.4,11.4-9.6c14.2,0.8,28.3,1.7,42.4,2.5c3.4,13.7,14.2,5.3,21.5,7.2
				C1105.8,835.1,1080.7,835,1055.6,835z"/>
			<path class="st20" d="M989.7,261.5c-5.4,0.9-11,1.3-16.2,2.8c-4,1.2-7.5,3.8-11.2,5.8c-6.4-9.6-12.8-19.1-21.2-31.7
				C962.6,241,976.9,249.6,989.7,261.5z"/>
			<path class="st20" d="M1132.1,1002.1c10.4,3.7,20.9,7.4,31.3,11.2c-12.3,7.2-24.6,14.3-36.8,21.5
				C1128.4,1023.9,1130.3,1013,1132.1,1002.1z"/>
			<path class="st4" d="M1300.3,305c-17.9-7.3-35.9-14.5-53.8-21.8c-3.1-1.3-5.9-3.3-8.9-5c24.3,5.6,48.5,11.2,72.8,16.8
				c0,1.8-0.1,3.6-0.1,5.5C1307,302,1303.6,303.5,1300.3,305z"/>
			<path class="st15" d="M1742.5,751.3c5.7-1.9,11.4-3.7,16.8-5.5c-0.6-6.4-1-11.2-1.4-16.1c5.3,15.5,10.6,30.9,15.9,46.3
				C1763.4,767.9,1752.9,759.6,1742.5,751.3z"/>
			<path class="st6" d="M981.7,392.9c2.7,3,5.4,6.1,8,9.1c-0.1,9.4-0.2,18.8-0.3,28.1c-2.5-1.5-5-3.1-7.5-4.7
				c-4.2-16.3-8.4-32.7-12.6-49c0.7-0.4,1.4-0.8,2.1-1.2C974.9,381.2,978.3,387.1,981.7,392.9z"/>
			<path class="st26" d="M982,425.5c2.5,1.5,5,3.1,7.5,4.7c0.1,13.5,0.2,27,0.2,40.6c-1.7,9.2-3.4,18.3-5.1,27.5
				c0-7.4,0-14.8,0-23.3c-2.6,2.1-3.9,3.2-5.2,4.2C980.2,461.3,981.1,443.4,982,425.5z"/>
			<path class="st27" d="M1711.8,1050.9c0.8,0,1.7,0.1,2.5,0.2c0,5.1,0,10.1,0,13.7c-6,2.4-9.7,3.9-13.3,5.4
				c-6.4,0.7-12.9,1.5-19.3,2.2C1689.4,1062.1,1695.9,1049.9,1711.8,1050.9z"/>
			<path class="st6" d="M1701,1070.3c3.7-1.5,7.4-3,13.3-5.4c0-3.6,0-8.7,0-13.7c11,4.6,21.9,9.2,32.9,13.8
				C1731.8,1066.7,1716.4,1068.5,1701,1070.3z"/>
			<path class="st18" d="M886.1,1185.4c-6.5,1-13.1,2.1-21.6,3.4c0,10.5,0,21.2,0,31.9c0,24.4,0.1,48.8-0.1,73.2c0,4.3-1.3,8.7-2,13
				c0-40.6,0-81.2,0-123.8C870.5,1183.9,878.3,1184.7,886.1,1185.4z"/>
			<path class="st18" d="M929.4,1188.7c0.1,29,0.3,58,0.4,86.9c0,0.4-0.2,1.1-0.4,1.2c-0.7,0.3-1.5,0.3-2.2,0.4
				c-0.1-26.2-0.3-52.3-0.2-78.5C927,1195.3,928.6,1192,929.4,1188.7z"/>
			<path class="st22" d="M992.4,363.8c-3.3,0.5-6.6,0.9-9.8,1.4c-2-8.9-3.9-17.8-5.9-26.7C986.6,344.2,989.8,353.8,992.4,363.8z"/>
			<path class="st18" d="M739.5,1312.5c26.5,0.1,53.1,0.2,79.6,0.4c-18.1,0.8-36.3,2.1-54.4,2.3
				C756.3,1315.3,747.9,1313.4,739.5,1312.5z"/>
			<path class="st7" d="M1594,416.6c-0.3-1.2-0.7-2.4-1-3.6C1593.3,414.2,1593.7,415.4,1594,416.6z"/>
			<path class="st9" d="M619.4,356.9c1.1-0.9,2.1-1.9,3.2-2.8C621.5,355,620.5,356,619.4,356.9z"/>
			<path class="st5" d="M1395,855l-1,0l-1-0.1c-6.5-26.3-13.1-52.6-19.5-79c-4.5-18.2-8.8-36.4-13.2-54.6
				c5.5,4.2,10.9,8.5,16.5,12.5c13.5,9.6,27,19,40.5,28.5c20.5-3,40.9-6.5,61.4-9c24.3-2.9,48.7-5,73-7.5
				c-30.6,21.5-61.2,43.2-91.9,64.6c-20.4,14.2-41.1,27.9-61.6,41.8c-0.9,0.9-1.8,1.7-2.7,2.6L1395,855z"/>
			<path class="st27" d="M1395.6,854.9c0.9-0.9,1.8-1.7,2.7-2.6C1397.3,853.2,1396.5,854,1395.6,854.9z"/>
			<path class="st15" d="M1417.3,762.4c-13.5-9.5-27.1-18.9-40.5-28.5c-5.6-4-11-8.3-16.5-12.5c-18.1-14.5-36.3-29-54.4-43.5
				c-13.7-11.9-27.4-23.8-41-35.7c1.3-1.7,2.2-4,3.9-4.9c11.7-6.1,24.3-10.8,35.2-18.1c27.7-18.5,54.4-38.2,81.9-57
				c18.7-12.8,37.7-25.3,57.1-37.1c6.2-3.8,13.9-5.2,20.9-7.7c-5.8,30.5-11.3,61-17.3,91.4c-9.4,47.2-19.2,94.3-28.7,141.4
				C1417,754.1,1417.4,758.3,1417.3,762.4z"/>
			<path class="st9" d="M1703.4,1034.8c-8-19.9-16.3-39.7-24.1-59.7c-19.3-50-38.1-100.2-57.4-150.1c-10.9-28.3-22.4-56.5-33.6-84.7
				c1.5-1.4,2.9-3.9,4.6-4.1c17.7-2.4,35.5-4.2,53.2-6.5c10.1-1.3,20.1-3.1,30.1-4.7c3.5,37.1,6.9,74.2,10.4,111.3
				c1.8,19.7,4.1,39.3,5.6,59c2.2,26.9,3.7,53.8,5.8,80.6C1699.6,995.4,1701.6,1015.1,1703.4,1034.8z"/>
			<path class="st16" d="M1463.8,517.4c-7,2.5-14.7,3.9-20.9,7.7c-19.3,11.9-38.3,24.3-57.1,37.1c-27.4,18.8-54.2,38.6-81.9,57
				c-10.9,7.3-23.5,12-35.2,18.1c-1.7,0.9-2.6,3.2-3.9,4.9c-0.8,0.5-1.6,0.5-2.5,0.2c-9-14.5-18.1-29-27.1-43.5
				c29.5-14.9,56.5-33.3,78.4-58.3c17.7-20.2,34.7-40.9,52.1-61.4c3.6,1.8,7,4,10.8,5.3c25.4,8.3,50.9,16.3,76.3,24.5
				c5.4,1,10.8,1.9,16.3,2.9c0,0.9,0,1.8,0,2.7C1467.4,515.5,1465.6,516.4,1463.8,517.4z"/>
			<path class="st26" d="M395.3,774c2.1-0.3,4.3-0.5,6.5-0.8c23.8-1.7,47.6-3.2,71.3-5.2c61-5.3,121.9-10.9,182.8-16.3
				c52.4-4.6,104.9-8.9,157.3-13.3c-1.3,9-2.5,17.9-3.7,26.9c-9.7,4.6-19.6,8.7-28.9,13.9c-16,9-31.7,18.6-47.5,27.9
				c-6.4,2.5-13,4.7-19.3,7.5c-13.1,5.9-24.3,16.5-40.8,13.4c-33.4-6.3-67-11.7-100.5-17.6c-10.5-1.9-20.9-4.6-31.4-6.3
				c-20.3-3.3-40.6-6.2-61-9.2c-16.2-3.5-32.4-7-48.6-10.4c-2.6-0.2-5.3-0.5-8-0.7c-5.3-1.7-10.6-3.2-15.8-5
				C403.5,777.3,399.4,775.6,395.3,774z"/>
			<path class="st15" d="M417.7,795.1c-15.1,25.1-30.2,50.2-45.1,75.4c-3.4,5.7-5.3,12.3-9.3,17.4c-3.5,4.4-9,7.2-13.6,10.7
				c-3.5-1.8-7-3.7-10.5-5.4c-13.5-6.6-29.8-8.8-38.2-23.4c38.8-27.6,76.7-54.5,115.3-81.9C416.7,790.3,417.2,792.7,417.7,795.1z"/>
			<path class="st12" d="M431.4,784.5c16.2,3.5,32.4,7,48.6,10.4c12.6,5.5,24.9,11.9,37.9,16.2c27.6,9,55.6,16.8,83.3,25.4
				c24.3,7.6,48.5,16,72.8,23.8c21.5,6.8,43.1,13.4,64.8,19.9c14.8,4.4,29.8,8.5,44.6,12.8l1,0l0.9,0.5c-8.2,21.3-16.3,42.7-24.6,64
				c-10.7,27.6-21.6,55.1-32.5,82.6c-1.9,0-3.9-0.1-5.8-0.1c-13.6-12.5-26.8-25.4-40.7-37.5c-40.9-35.5-82.2-70.7-123.2-106.2
				c-41-35.5-81.8-71.2-122.6-106.8C434.3,788,433,786.2,431.4,784.5z"/>
			<path class="st27" d="M1175.1,816.7c15.3-21.2,16.3-45.9,16.8-70.7c15.1-8.6,30.4-17,45.3-25.9c23-13.8,45.8-28.1,68.6-42.2
				c18.1,14.5,36.3,29,54.4,43.5c4.4,18.2,8.7,36.4,13.2,54.6c6.5,26.3,13,52.7,19.5,79c-69.6-11.9-139.2-23.7-208.8-35.7
				C1181.1,818.8,1178.2,817.6,1175.1,816.7z"/>
			<path class="st5" d="M559.3,669.8c-3.6-10.9-7.2-21.7-10.8-32.6l0,0c3.7-1.3,7.8-2,11.1-4.1c32.1-20.2,64-40.6,96-60.8
				c18.7-11.8,37.6-23.1,56.3-34.8c22-13.9,43.8-28,65.7-42.1c0.9,0,1.8,0,2.7,0c10.8,20.2,21.6,40.5,32.4,60.7
				c0.2,3.6-0.3,7.4,0.8,10.8c10.1,33.5,20.6,66.9,30.7,100.4c6.2,20.6,11.8,41.5,17.6,62.2c-9,0-18,0-27,0.1
				c-21.3-5.3-42.5-11-64-15.8c-46.6-10.3-93.2-20.3-139.9-30.1C607,678.7,583.2,674.4,559.3,669.8z"/>
			<path class="st27" d="M777.5,495.4c-21.9,14-43.7,28.2-65.7,42.1c-18.7,11.8-37.6,23.1-56.3,34.8c-32,20.2-63.9,40.7-96,60.8
				c-3.3,2-7.4,2.8-11.1,4.1c-7.2-28.3-14.4-56.5-21.5-84.8c-9.3-37.1-18.4-74.2-27.6-111.3c1.9-0.1,3.8-0.2,5.7-0.3
				c31.4,5,62.9,9.8,94.4,14.9c36.3,5.9,72.6,12,108.9,18.1c21.3,3.6,42.5,7,63.6,11.4C774.4,485.8,775.7,491.9,777.5,495.4z"/>
			<path class="st12" d="M1365.8,479.3c8-11.8,16-23.6,24-35.5c19,17.2,38.1,34.4,57.1,51.6c4.3,3.9,8.7,7.6,14.8,12.9
				c-4.6,0.4-6.7,0.5-8.8,0.7c-25.5-8.1-50.9-16.2-76.3-24.5C1372.8,483.3,1369.4,481.1,1365.8,479.3z"/>
			<path class="st27" d="M559.3,669.8c23.8,4.6,47.7,8.9,71.5,13.9c46.7,9.8,93.3,19.8,139.9,30.1c21.5,4.8,42.7,10.5,64,15.8
				c-4.4,1.2-8.8,2.5-13.2,3.7c-2.8,1.7-5.6,3.5-8.4,5.2c-52.4,4.4-104.9,8.7-157.3,13.3C594.9,757,534,762.7,473,768
				c-23.8,2.1-47.6,3.5-71.3,5.2c21-14.5,41.8-29.3,62.9-43.6c23.8-16.2,47.7-32.1,71.7-47.9c4.4-2.9,9.8-4.5,14.7-6.7
				C553.8,673.3,556.5,671.5,559.3,669.8z"/>
			<path class="st16" d="M1165.8,415.5c-13.1,6.2-26.2,12.4-39.4,18.6c-5.8-10.4-11.5-20.7-17.3-31.1c7.3,1.3,14.7,2.4,22,4
				C1142.8,409.6,1154.3,412.7,1165.8,415.5z"/>
			<path class="st3" d="M809.4,765.3c3.8,15.4,7.6,30.7,11.5,46.1c-3,6.9-6.4,13.7-9,20.8c-6.2,16.6-12.1,33.4-18.2,50.1
				c-1.8,3.5-3.6,7-5.4,10.5c-1,0.2-2,0.4-3,0.5l-0.9-0.5l-1,0c-0.8-3-0.8-6.5-2.5-8.9c-8.6-13.3-17.9-26.2-26.3-39.6
				c-7.7-12.2-14.5-24.9-21.7-37.3c15.8-9.3,31.5-19,47.5-27.9C789.8,774,799.8,769.9,809.4,765.3z"/>
			<path class="st25" d="M1095.8,490.1c-2.7,1.8-5.4,3.6-8.1,5.4c-2.7,1.9-5.5,3.7-8.2,5.5c-2.7,2-5.3,3.9-8,5.9
				c-1.9,1.6-3.8,3.3-5.7,4.9l0,0c-2.7,1.9-5.4,3.8-8.2,5.6c-6.3,5.3-12.7,10.7-19,16c-2,1.9-4,3.7-5.9,5.6
				c-1.6,1.2-3.2,2.3-4.8,3.5c-0.9,0.7-1.9,1.5-2.8,2.2c-11.9,11.6-23.8,23.2-35.6,34.7c-0.8-0.7-1.6-1.3-2.4-2c1-5.3,2-10.5,3-15.8
				c1.2-3.9,2.5-7.8,3.7-11.7c6-7.1,12.5-13.8,18-21.3c27.3-37.2,54.4-74.6,81.5-112c-4.3,13.8-8.9,27.5-12.8,41.5
				c-1.4,5-1,10.4-1.4,15.6c-5.6,7.3-11.2,14.5-16.8,21.8c1,1.4,2.1,2.9,3.1,4.3c13.1-7.4,26.1-14.8,39.2-22.1
				c10.9-6.1,21.9-12,33.1-17.6c0.9-0.4,3,1.7,4.6,2.7c-2.8,1.9-5.6,3.7-8.4,5.6c-0.9-0.1-1.7,0.1-2.4,0.6c-2.1,1.5-4.2,3.1-6.3,4.7
				c-7,3.9-14,7.7-21,11.5C1101.4,486.7,1098.6,488.4,1095.8,490.1z"/>
			<path class="st5" d="M1305.9,677.9c-22.9,14.1-45.6,28.4-68.6,42.2c-14.9,9-30.2,17.3-45.3,25.9c-2.9-3.7-5.9-7.4-8.8-11
				c-1.1-0.6-2.3-1.2-3.4-1.8c0,0,0.3,0.2,0.3,0.1c-4.4-1.2-8.8-3.4-13.3-3.5c-26.2-0.3-52.3-0.3-78.5-0.1c-6.7,0.1-10-1.2-12.2-8.8
				c-9.9-35.3-20.9-70.2-31.5-105.3c9.8,0,19.6,0,29.3,0c6.4,1.7,12.9,3.3,19.3,5c1.8,0,3.6,0,5.5,0c10.4,1.8,20.7,4.3,31.1,5.4
				c22.1,2.3,44.2,3.8,66.3,5.7c0.9,0.1,1.8,0.3,2.7,0.4c21.2,3.4,42.4,6.8,63.6,10.2c0.9,0.3,1.7,0.2,2.5-0.2
				C1278.6,654.1,1292.2,666,1305.9,677.9z"/>
			<path class="st3" d="M1262.4,642.5c-21.2-3.4-42.4-6.8-63.6-10.2c-0.9-0.1-1.8-0.3-2.7-0.4c-22.1-1.9-44.3-3.4-66.3-5.7
				c-10.4-1.1-20.7-3.5-31.1-5.4c3.6-1.8,7.2-3.5,10.8-5.3c42.8,1.1,85.2-0.7,125.8-16.5C1244.4,613.5,1253.4,628,1262.4,642.5z"/>
			<path class="st16" d="M733,807.1c7.2,12.5,14,25.2,21.7,37.3c8.4,13.4,17.7,26.3,26.3,39.6c1.6,2.5,1.7,5.9,2.5,8.9
				c-14.9-4.3-29.8-8.4-44.6-12.8c-21.6-6.5-43.2-13-64.8-19.9c-24.3-7.8-48.4-16.1-72.8-23.8c-27.7-8.7-55.8-16.4-83.3-25.4
				c-13-4.3-25.3-10.7-37.9-16.2c20.3,3,40.7,5.9,61,9.2c10.5,1.7,20.9,4.4,31.4,6.3c33.5,5.9,67.1,11.3,100.5,17.6
				c16.5,3.1,27.7-7.5,40.8-13.4C720,811.8,726.6,809.6,733,807.1z"/>
			<path class="st23" d="M1044.6,615.8c10.6,35.1,21.5,70,31.5,105.3c2.1,7.5,5.5,8.8,12.2,8.8c26.2-0.3,52.3-0.3,78.5,0.1
				c4.4,0.1,8.9,2.3,13.3,3.5c-67-0.3-134.1-0.5-201.1-0.8c-23.5-0.1-47.1-0.5-70.6-0.7c5.5-10.4,10.1-21.5,16.8-31
				c10.9-15.5,23.3-30,35-44.9c0.8,0.2,1.5,0.5,2.2,0.7c0.2,2.6,0.5,5.2,0.7,7.8c1.6,6.5,3.2,13,4.8,19.4c0.2,4.4,0.5,8.8,0.7,13.2
				c0.8,5.7,2.1,11.4,2.3,17.1c0.3,11.5,8.8,8,14.6,7.8c9.5-0.3,7.8-6.1,4.6-12c-0.3-7.9-0.6-15.9-0.8-23.8c0-10.9,0-21.8,0-32.7
				c0.5-5.6,1.1-11.1,1.6-16.7c10.5-9,21.1-17.9,31.6-26.9C1029.8,611.9,1037.2,613.8,1044.6,615.8z"/>
			<path class="st25" d="M960.2,655.9c-11.7,14.9-24.1,29.4-35,44.9c-6.7,9.5-11.3,20.6-16.8,31c-28.9,0.5-57.9,0.9-86.8,1.4
				c4.4-1.2,8.8-2.5,13.2-3.7c9,0,18,0,27-0.1c14.6-2.5,17.7-16.7,25-26c17.5-22.4,33.9-45.7,49.8-69.3c5-7.4,6.9-17,10.2-25.5
				c1.6,2.4,3.2,4.8,4.8,7.3c0.3,1.6,0.5,3.3,0.7,4.9c1.5,3.9,3.1,7.8,4.7,11.6c0.7,3.5,1.3,7,2,10.5
				C959.2,647.3,959.7,651.6,960.2,655.9z"/>
			<path class="st23" d="M1179.7,733.3c1.1,0.6,2.3,1.2,3.4,1.8C1182,734.4,1180.9,733.8,1179.7,733.3z"/>
			<path class="st27" d="M946.6,608.7c-3.3,8.6-5.2,18.1-10.2,25.5c-15.9,23.6-32.2,46.9-49.8,69.3c-7.3,9.3-10.3,23.5-25,26
				c-5.9-20.7-11.5-41.5-17.6-62.2c-10-33.5-20.6-66.9-30.7-100.4c-1-3.4-0.5-7.2-0.8-10.8c36.9,36.4,42.5,32.7,120.9,59.5
				c-3.3-16.4-6.2-31.4-9.2-46.4c1-1,2.1-2,3.2-3c4.6,9.1,9.2,18.3,13.8,27.4c1.6,2.9,3.2,5.7,4.8,8.6c-0.2,0.8,0,1.6,0.5,2.3
				C946.6,605.9,946.6,607.3,946.6,608.7z"/>
			<path class="st23" d="M927.5,566.2c-1,1-2.1,2-3.2,3c-13.9-28.2-34.3-50.5-64.1-67.3c8.9,0.9,14.8,1.5,20.7,2c0.2-1,0.3-2,0.5-3
				l1,0l1,0.1l0.2,0.2c11.7,15.4,23.5,30.8,35.2,46.2c-0.1,0.9,0.1,1.7,0.5,2.5c1.6,2,3.2,4,4.8,6
				C925.3,559.5,926.4,562.8,927.5,566.2z"/>
			<path class="st26" d="M883.5,501.1l-1-0.1c0,0-1,0-1.1,0c-1.2,0-2.3,0-3.5,0c-8.3-9.6-16.7-19.1-25-28.7c0.1-0.5,0.2-1,0.3-1.4
				c11,7.3,22,14.6,33,22C885.3,495.6,884.4,498.3,883.5,501.1z"/>
			<path class="st25" d="M883.5,501.1c0.9-2.8,1.8-5.5,2.7-8.3c16.4,18.2,32.8,36.4,49.2,54.6c-1.8-1-3.6-1.9-5.4-2.9
				c-1.8-1.9-3.6-3.8-5.4-5.7l0.1,0c-11.1-12.2-22-24.6-33.4-36.6c-1.4-1.5-5.1-0.7-7.7-1L883.5,501.1z"/>
			<path class="st25" d="M940.8,555.6c-1.9-2.8-3.8-5.6-5.6-8.4C937.1,550,939,552.8,940.8,555.6z"/>
			<path class="st25" d="M877.9,501c1.2,0,2.3,0,3.5,0c-0.2,1-0.3,2-0.5,3C879.9,503,878.9,502,877.9,501z"/>
			<path class="st6" d="M1044.6,615.8c-7.4-1.9-14.8-3.9-22.1-5.8c3.6-9.9,5.9-20.5,11.3-29.3c3.7-6.1,4.4-10.1,0.2-15.3
				c0,0,0.7-0.7,0.7-0.7c1.3-1.3,2.7-2.7,4-4.1c0.1-0.8,0.1-1.6,0.2-2.3c0.7-0.9,1.4-1.8,2.2-2.6c1.1-1.1,2.2-2.2,3.3-3.3
				c0.7-0.7,1.4-1.4,2.1-2.1c10.2-9.2,20.3-18.4,30.5-27.7c1.9-1.7,3.8-3.3,5.6-5l-0.1,0c2.7-1.8,5.5-3.7,8.2-5.5c2.7-2,5.3-4,8-5.9
				c1.9-1.6,3.9-3.2,5.8-4.9c1.7-1.1,3.4-2.3,5.2-3.5c1-0.7,1.9-1.4,2.9-2.1c6.3-3.8,12.5-7.6,18.8-11.3c2.8-1.7,5.6-3.3,8.4-5
				c4.4-1.9,8.9-3.8,13.3-5.8c2.4,4.4,4.8,8.7,7.2,13.1c-41.8,18-76.9,44.2-101.2,83.2c-8.1,13.1-14.4,27.3-22.1,41.9
				c26,1.3,49.2,2.5,72.5,3.7c-3.6,1.8-7.2,3.5-10.8,5.3c-1.8,0-3.6,0-5.5,0c-6.4-1.7-12.9-3.3-19.3-5
				C1064.2,615.8,1054.4,615.8,1044.6,615.8z"/>
			<path class="st25" d="M1034,565.3c4.2,5.2,3.5,9.2-0.2,15.3c-5.3,8.8-7.7,19.5-11.3,29.3c-10.5,9-21.1,17.9-31.6,26.9
				c-0.3-0.6-0.6-1.1-0.8-1.8c1.2-2.8,2.4-5.7,3.6-8.5c4.2-8.2,8.3-16.4,12.5-24.6c1.7-2.8,3.4-5.6,5-8.3c2-3.4,4.1-6.8,6.1-10.1
				c1.8-2,3.5-4.1,5.3-6.1C1026.4,573.3,1030.2,569.3,1034,565.3z"/>
			<path class="st15" d="M1160.3,486.7c-2.4-4.4-4.8-8.7-7.2-13.1c7.2-3.6,14.4-7.3,21.6-10.9c2,1.1,4,2.2,6,3.3
				c0.6,1.5,1.2,4.3,1.7,4.2c9.9-0.6,19.8-1.5,29.7-2.4c0.2,1.2,0.4,2.3,0.6,3.5C1195.3,476.4,1177.8,481.6,1160.3,486.7z"/>
			<path class="st4" d="M1262.8,425.1c-34.9,9.6-75.7,20.8-116.4,31.9C1184.9,437.3,1225.7,425.9,1262.8,425.1z"/>
			<path class="st4" d="M1180.7,466c-2-1.1-4-2.2-6-3.3c15.4-7.7,30.8-15.4,46.1-23c0.5,1,1.1,2,1.6,3.1
				C1208.5,450.5,1194.6,458.2,1180.7,466z"/>
			<path class="st25" d="M1038.7,560.6c-1.3,1.4-2.7,2.7-4,4.1C1036,563.3,1037.3,561.9,1038.7,560.6z"/>
			<path class="st3" d="M1073.9,615.7c6.4,1.7,12.9,3.3,19.3,5C1086.8,619.1,1080.4,617.4,1073.9,615.7z"/>
		</g>
	</g>
</g>
<g id="Слой_2_1_">
	<g>
		<g>
			<path class="st2" d="M1482.3,1091.7c-25.6,0.1-51.2,0.1-76.8,0.2c-0.1-2.3,0.3-4.6-0.3-6.8c-18.2-68.5-36.4-137.1-54.7-205.6
				c-0.1-1.8-0.2-3.5-0.2-5.2l0.6-0.2c0.8-0.9,1.7-1.7,2.5-2.6c28.1-19,56.3-37.8,84.2-57c23.4-16.2,46.5-32.9,69.8-49.4
				c9.7-1.7,19.4-3.5,29.2-5.2c-4.2,25.8-8.5,51.5-12.6,77.3c-8.6,53.3-17,106.7-25.7,160
				C1493.1,1028.8,1487.6,1060.2,1482.3,1091.7z"/>
			<path class="st3" d="M1350.5,879.6c18.2,68.5,36.5,137,54.7,205.6c0.6,2.1,0.2,4.5,0.3,6.8c-68.6,0-137.2-0.1-205.8-0.1
				c-8.8-7.1-17.5-14.4-26.5-21.2c-17-12.9-34.3-25.6-51.4-38.4c16.6-11.6,33.1-23.3,49.7-34.8c50.5-34.9,101-70,151.7-104.5
				C1331.5,887.3,1341.4,884,1350.5,879.6z"/>
			<path class="st4" d="M1536.6,760c-9.7,1.7-19.4,3.5-29.2,5.2c-23.5,2.3-47,4.3-70.5,7.1c-21.5,2.6-42.8,6.2-64.2,9.3
				c0.2-4.5-0.2-9.2,0.7-13.5c11.3-56,22.9-111.9,34.1-167.9c4.3-21.2,7.8-42.4,11.7-63.7c0-0.8,0.1-1.7,0.1-2.5
				c4.5,1.8,9,3.5,13.5,5.3c1.7,2.1,3.1,4.5,5.1,6.3c31.6,27.7,63.1,55.5,95,82.8c4.9,4.2,11.6,6.1,17.5,9.1
				c2.6,1.1,5.2,2.2,7.8,3.3c-1.9,1-3.8,2.1-6.2,3.4c8.8,7.9,17.5,15.6,26.1,23.3c26.2,23.5,52.4,47,78.6,70.5
				c-8.2,2-16.4,4-24.7,5.9c-10.1,1.6-20.1,3.4-30.2,4.7c-17.7,2.3-35.5,4.2-53.3,6.5c-1.7,0.2-3.2,2.6-4.7,4
				C1541.4,759.5,1539,759.8,1536.6,760z"/>
			<path class="st28" d="M1632.1,744.1c8.2-2,16.4-4,24.7-5.9c2.9,1.6,6.1,2.8,8.7,4.9c11.7,9.2,23.1,18.5,34.7,27.8
				c9.9,8.2,19.8,16.4,29.8,24.6c3.1,4.3,6.1,8.7,9.2,13c5.1,3.8,10.5,7.2,15.3,11.3c27.5,23.7,54.9,47.6,82.3,71.4
				c-56.4,56.1-112.8,112.3-169.2,168.4c-2.7-1.8-5.4-3.6-8.2-5.4c-0.3-8.6-0.1-17.2-0.9-25.7c-3.2-32.6-6.8-65.2-9.9-97.8
				c-2.3-24.2-3.9-48.4-6.1-72.5C1639.1,820.1,1635.5,782.1,1632.1,744.1z"/>
			<path class="st6" d="M1659.3,1054.1c2.7,1.8,5.4,3.6,8.2,5.4c1,3.5,1,8.9,3.2,10.1c10.5,5.5,21.6,9.8,32.5,14.6
				c-15.4,1.8-30.9,3.5-46.3,5.3c-0.9-0.6-1.9-1.3-2.8-1.9c0.3-0.3,0.5-0.7,0.8-0.7c4.7-0.4,9.4-0.7,16.5-1.2
				c-5.6-7-4.4-19.6-15.9-13.3c-7.3,4-12.1,12.7-17.9,19.3c-51.7,0-103.5-0.1-155.2-0.1c5.3-31.5,10.9-62.9,16-94.5
				c8.7-53.3,17.1-106.7,25.7-160c4.1-25.8,8.4-51.5,12.6-77.3c2.4-0.2,4.9-0.4,7.3-0.6c11.3,28.2,22.8,56.3,33.7,84.5
				c19.3,50,38.2,100.3,57.6,150.3C1642.9,1014.3,1651.3,1034.2,1659.3,1054.1z"/>
			<path class="st7" d="M161.4,858.7c0.9-33.6,10.8-64.6,27.4-93.6c55.4,10.8,110.8,21.5,166.2,32.3c7.4,1.9,14.8,3.8,22.2,5.7
				c-1,2-2,4-3,6c-6.8,3.2-14.1,5.5-20.1,9.6c-33.1,22.8-65.9,46.1-99.3,69.6c3.6,12,15,14.3,24.4,18.7c8.7,4.2,17.9,7.4,26.9,11
				c0,1.8,0,3.7,0,5.5l0,0c-9.5,2.8-25.5,31.2-24.6,43.6c-10.6,18.6-20.9,37.4-32.1,55.7c-5.6,9.1-12.7,17.3-19.2,25.9
				c-30.3-27.6-50.7-61-60.5-100.8c24.2-17.5,48.3-35,74.2-53.7c-13.9-5.5-25.2-9.6-36.2-14.4C192.1,872.9,176.8,865.7,161.4,858.7z
				"/>
			<path class="st8" d="M374.2,809c1-2,2-4,3-6c2.7,0.3,5.3,0.5,8,0.8c25.6,22.8,51,45.9,76.9,68.4c67.2,58.3,134.8,116.4,202,174.7
				c4.9,4.2,8.5,9.9,12.7,14.9l0.3,0.5c-2.7-0.1-5.4-0.2-8.1-0.3c-5.8-4.4-11-10.3-17.5-12.8c-42.3-17-85-33.2-127.5-49.6
				c0.8-3.9,1.6-7.8,2.4-11.6c0.7-0.1,1.5-0.2,2.2-0.3c-0.7,0.2-1.4,0.4-2,0.5c-3.6,2.9-7.3,5.8-10.9,8.7
				c-35.8-13.3-71.7-26.5-107.4-40c-27.7-10.5-55.2-21.5-83-31.6c-5.9-2.1-12.8-1.3-19.3-1.8c0-1.8,0-3.7,0-5.5
				c2.1-1.5,4.9-2.5,6.1-4.5c9.6-15.2,19-30.6,28.2-46.1C351.7,847.9,362.9,828.4,374.2,809z"/>
			<path class="st9" d="M1350.5,879.6c-9.1,4.4-19,7.7-27.3,13.3c-50.8,34.5-101.2,69.6-151.7,104.5c-16.6,11.5-33.1,23.2-49.7,34.8
				c-0.9,0-1.9,0-2.9,0c-4.7-15.3-9.2-30.7-14.1-46c-2.1-6.5-4.9-12.7-7.4-19c3.9-26.3,7.4-52.7,11.8-78.9c4-23.5-1.7-31.7-25.3-34
				c-6.7-1.9-17.3,6.6-19.7-7.2c22.5-0.7,45.5,1.2,66-11.2c32.8,5.7,65.6,11.4,98.4,17.2c39.9,7,79.8,14.1,119.7,21.1l1,0.1l1,0
				C1350.4,876.1,1350.5,877.8,1350.5,879.6z"/>
			<path class="st10" d="M306,923.4c6.5,0.5,13.4-0.3,19.3,1.8c27.8,10.1,55.3,21.2,83,31.6c35.8,13.5,71.6,26.7,107.4,40
				c-54.8,54.8-133.3,74.9-206.3,29.5c-4.5-2.8-9.2-5.4-13.8-8.1c-2-1.7-4.1-3.3-6.1-5c-0.5,0.5-1,1-1.5,1.5
				c1.8,1.9,3.6,3.8,5.3,5.7c21.5,18.4,42.9,36.8,64.4,55.2c-13.9,1-27.9,1.9-41.8,3c-9.8,0.8-19.6,1.9-29.4,2.9
				c-15.2-7.7-30.5-15.2-45.5-23.3c-4.1-2.3-7.3-6.4-10.9-9.7c6.5-8.6,13.6-16.8,19.2-25.9c11.2-18.3,21.4-37.1,32.1-55.7
				C289.6,952.4,297.8,937.9,306,923.4C306,923.4,306,923.4,306,923.4z"/>
			<path class="st9" d="M570.9,381.5c-11.8,22.5-23.7,44.9-35.5,67.4c1.1,0.6,2.2,1.2,3.3,1.8c11.3-13.4,22.3-27.1,33.9-40.2
				c21.5-24.5,47.2-43.1,79-51.4c15.2-4,31.2-4.6,46.8-6.7c8.4,29.3,16.8,58.6,25.2,87.9c-1.6,2.1-4.9,4.5-4.6,6.1
				c4.7,21,10,41.9,15.1,62.9c-2.1-1.7-3.9-4.5-6.2-4.9c-21.7-4-43.4-7.7-65.2-11.3c-36.4-6.1-72.8-12.1-109.2-18
				c-31.5-5.1-63.1-10-94.6-15c-9.8-9,3.2-10.9,5.6-12.7c26.7-18.9,53.9-37.1,81.4-54.8C553.5,387.6,562.5,385.1,570.9,381.5z"/>
			<path class="st8" d="M1517,367.8c9.9,19,19.7,38.1,29.6,57.1c-2.9,1.2-6.2,3.9-8.6,3.2c-9.2-2.7-17.9-7.5-27.2-9.5
				c-8.4-1.8-19.2-8.6-25.5,2c-17.3,29.1-33.3,59-49.8,88.6c-3.1,0.7-6.2,1.3-9.3,2c1.3,1.1,2.6,2.3,3.9,3.5c0,1.8,0,3.6-0.1,5.4
				c-4.6,1.9-9.1,3.8-13.7,5.6c-23.7-20.9-47.4-41.9-71.1-62.8c10-16.8,20-33.6,29.9-50.2c-22.4,1.4-44,2.7-65.5,4
				c-7.9-0.9-18,1.1-23.3-3.1c-19.4-15.1-37.2-32.2-55.6-48.6c23.2-18.5,49.2-28.2,79.3-24.4c1.8,1.7,3.2,4.2,5.3,5
				c12.9,4.9,26.1,9.1,38.9,14.1c41.3,16.3,82.6,32.8,123.8,49.5c7.9,3.2,13.3,2.6,17.7-5.9C1502.1,391.1,1509.8,379.6,1517,367.8z"
				/>
			<path class="st11" d="M354.9,797.3c-55.4-10.8-110.8-21.5-166.1-32.3c12.1-25.1,30.4-45.1,52-62.3c55.1-2.8,110.1-5.3,165.2-8.4
				c20.7-1.1,41.3-3.9,62-4.8c12.4-0.5,24.8,1.4,37.2,2.2c-26.7,17.4-53.6,34.6-80.1,52.3c-23.5,15.7-46.5,32.1-69.7,48.2
				c-1.2,0.4-2.4,0.8-3.6,1.1C352.8,794.8,353.9,796.1,354.9,797.3z"/>
			<path class="st29" d="M1230.7,365.1c18.4,16.4,36.2,33.5,55.6,48.6c5.3,4.1,15.4,2.2,23.3,3.1c-7.1,0.6-14.3,1.6-21.4,1.7
				c-56.3,0.5-112.7-1.1-167.4,16.3c-5.9-1.3-11.9-2.6-17.8-3.9c-13.1-2.9-26.2-5.7-39.2-8.5c-1.6-1.8-3.2-3.7-4.8-5.5
				c5.3-12.4,10.8-24.7,15.8-37.3c9.4-23.8,18.6-47.6,27.8-71.5c16.4-3.6,32.9-7.2,49.3-10.9c3.1,3.3,5.9,6.8,9.3,9.7
				c19.3,16.6,38.7,33.1,58.1,49.7c-7.3,11.1-14.5,22.1-21.8,33.2c0.6,0.4,1.1,0.8,1.7,1.3C1209.8,382.4,1220.3,373.8,1230.7,365.1z
				"/>
			<path class="st7" d="M1416.4,525.8c4.6-1.9,9.1-3.8,13.7-5.6c1.9,0.4,4.6,1.7,5.8,1c15.2-10.3,30.2-20.9,45.2-31.5
				c21.8-15.4,43.6-30.7,66.4-46.8c1.6,4,2.6,6.7,3.6,9.3c0.6-0.5,1.3-0.9,1.7-1.5c0.3-0.3,0.2-0.9,0.2-1.3c1.5,6,4.7,12.1,4.1,17.9
				c-1.6,15.5,8.4,21.6,19.4,28.4c37.2,23.2,65,55.3,86.5,93c3.9,6.8,6.7,14.3,10.1,21.4c-2.4,0.5-5.2,2.1-7.1,1.4
				c-26.3-9.3-52.6-19-78.9-28.5c-8.3-3-16.7-5.8-25.1-8.4c-36.8-11.1-73.5-22.3-110.4-33c-5.9-1.7-12.4-1.6-18.7-2.4
				c-4.5-1.8-9-3.5-13.5-5.3c-1-1.9-2.1-3.9-3.1-5.8C1416.3,527.4,1416.4,526.6,1416.4,525.8z"/>
			<path class="st30" d="M723.7,440.2c-8.4-29.3-16.8-58.6-25.2-87.9c12.7,1.9,25.5,3.9,38.2,5.7c4.3,0.6,8.6,0.5,13.2-1
				c-17-17.1-37.9-25.2-59.8-31.4c-2.4-7.8-4.8-15.5-7.2-23.3c1.7,0,3.4,0,5.1-0.1c1.8,0.1,3.7-0.3,5.4,0.3
				c29.3,9.1,58.8,18.1,88,27.7c19.9,6.5,39.5,14,59.3,21c-1.8,12.4-5.2,24.8-5,37.1c0.4,20.1,3.2,40.1,4.9,60.1
				c-12.6,7.8-25.2,15.5-37.7,23.3C776.5,461.2,750.1,450.7,723.7,440.2z"/>
			<path class="st28" d="M366.1,610.2c19.7-24.5,16.1-53.6,16.5-82c0.1-9.8,2.5-19.5,3.9-29.3c4.8-2.4,9.8-4.4,14.2-7.3
				c15.8-10.3,31.4-20.9,47.1-31.4c1.8,0,3.6,0,5.5,0c9.6,38.4,19.3,76.7,28.9,115c6.8,27,13.5,54,20.3,81.1
				c-3.6-0.1-7.5,0.5-10.8-0.6c-14.1-4.8-27.9-10.3-42-15.2c-7-2.4-14.4-4-21.6-6c-19-5.4-38-10.7-56.8-16.6
				C369,617.3,367.8,612.9,366.1,610.2z"/>
			<path class="st10" d="M1517,367.8c-7.1,11.8-14.9,23.3-21.2,35.5c-4.4,8.5-9.7,9.1-17.7,5.9c-41.2-16.6-82.4-33.1-123.8-49.5
				c-12.8-5.1-26-9.2-38.9-14.1c-2.1-0.8-3.6-3.3-5.3-5c20.2,4.1,40.5,8.2,59.5,12c-14.6-15.9-33.7-29.7-57.6-37
				C1367.5,278.6,1465.6,292.1,1517,367.8z M1375.1,359.4c-0.4-0.6-0.8-1.2-1.1-1.8c-0.6,0.6-1.5,1.2-1.6,1.8
				c-0.1,0.6,0.9,1.2,1.4,1.9C1374.2,360.6,1374.7,360,1375.1,359.4z"/>
			<path class="st14" d="M1703.2,1084.3c-10.9-4.8-22-9.1-32.5-14.6c-2.2-1.2-2.2-6.6-3.2-10.1c56.4-56.1,112.8-112.3,169.2-168.4
				c1.8,1.6,3.7,3.1,5.5,4.7c0.5,80.1-57.3,164-128.4,186.4C1710.3,1083.3,1706.7,1083.6,1703.2,1084.3z"/>
			<path class="st31" d="M366.1,610.2c1.7,2.7,2.9,7,5.2,7.8c18.8,5.9,37.8,11.2,56.8,16.6c7.2,2,14.5,3.6,21.6,6
				c14.1,4.9,27.9,10.4,42,15.2c3.3,1.1,7.2,0.4,10.8,0.6c0.9,0,1.8,0,2.7,0c1.8,10.9,3.7,21.8,5.5,32.7c-1.8,0.9-3.6,1.8-5.4,2.7
				c-12.4-0.8-24.9-2.7-37.2-2.2c-20.7,0.8-41.3,3.6-62,4.8c-55,3-110.1,5.6-165.2,8.4c30.5-24.6,65.1-37.3,103.5-35.8
				C351.8,647.5,358.9,628.9,366.1,610.2z"/>
			<path class="st32" d="M1842.2,895.8c-1.8-1.6-3.7-3.1-5.5-4.7c-27.4-23.8-54.8-47.7-82.3-71.4c-4.8-4.1-10.2-7.5-15.3-11.3
				c-2.3-23.3-4.7-46.7-7-70c18.5,0.6,24.7-16.5,36.6-25.4c21.4,13.5,34.8,34.1,46.9,55.3c20,34.9,27.9,73.1,28.7,113
				C1844.3,886.1,1842.9,891,1842.2,895.8z"/>
			<path class="st33" d="M1432.8,539.3c6.2,0.7,12.7,0.6,18.7,2.4c36.9,10.8,73.6,21.9,110.4,33c8.4,2.5,16.8,5.4,25.1,8.4
				c26.3,9.5,52.5,19.2,78.9,28.5c2,0.7,4.7-0.9,7.1-1.4c6.3,15.5,12.7,31,20,48.8c-6.1-0.6-8.7,0-10.1-1.1
				c-38.5-27.6-81.1-29.8-125.7-21.1c-2.2,0.4-4.5,0.5-6.8,0.7c-5.9-3-12.6-5-17.5-9.1c-31.9-27.3-63.4-55.1-95-82.8
				C1435.9,543.8,1434.5,541.4,1432.8,539.3z"/>
			<path class="st3" d="M453.3,460.3c-1.8,0-3.6,0-5.5,0c0-4.3,1-8.8,0-12.8c-4.3-17.5-9.1-34.9-13.7-52.4
				c45.1-56.5,117.7-76.8,176-56.6c-13,14.3-26.1,28.7-39.2,43.1c-8.4,3.6-17.4,6.1-25,11c-27.5,17.7-54.7,35.9-81.4,54.8
				c-2.4,1.7-15.4,3.7-5.6,12.7C457,460.1,455.1,460.2,453.3,460.3z"/>
			<path class="st34" d="M807.6,934.2c2,12.1,4.1,24.1,6.1,36.2c-2.2,3.5-3.6,8.4-6.8,10.5c-40.4,25.6-81.1,50.9-121.7,76.2
				c0.5-4.5,0-9.5,1.7-13.5c16.3-39,33.2-77.9,49.4-117c1.7-4.1,0.6-9.3,0.8-14l0.9-0.2l1,0.1c1.2-0.1,2.4-0.2,3.6-0.2l0.3,0.2
				c5.7,2.6,11.2,5.7,17.1,7.6C775.8,925,791.7,929.5,807.6,934.2z"/>
			<path class="st35" d="M1514,1333.6c-24.7,2.9-24.7,2.9-33-17.6c-9.8-24.2-19.8-48.3-32.5-72.1c0,20.8,0,41.7,0,62.6
				c0,5.9,1.2,12.2-0.6,17.5c-1.4,4.2-6.5,7.1-10,10.6c-3.3-3.6-9.6-7.2-9.6-10.9c-0.7-39.8-0.4-79.6-0.4-119.2
				c24-4.1,24-4.1,32.2,15.9c10.2,24.9,20.3,49.7,33,74c0-22.4,0-44.9,0-67.3c0-3.6-1.3-7.9,0.3-10.7c2.7-4.8,7.1-8.6,10.7-12.8
				c3.3,4.1,8.9,7.9,9.5,12.4c1.4,10.7,0.5,21.7,0.5,32.6C1514,1276.6,1514,1304.6,1514,1333.6z"/>
			<path class="st36" d="M816.2,1204.4c24.2-3.2,24.1-3.2,32.7,17.7c9.6,23.5,19.2,46.9,28.8,70.4c0.3,0.8,1,1.5,3.8,5.5
				c0-10.7,0-18.3,0-25.9c0-18.6-0.6-37.2,0.5-55.8c0.2-4.4,5.2-11.2,9.1-12.1c8-1.8,10.6,4.9,10.6,12.1c0,38.1,0,76.2,0,115.4
				c-8.2,1.3-16.3,2.7-24.5,4c-12.8-31.3-25-61.2-37.2-91.1c-1.3,0.1-2.5,0.3-3.8,0.4c0,8.2,0,16.4,0,24.6c0,17.7,0.6,35.4-0.5,53.1
				c-0.3,4.2-6.2,8-9.6,12.1c-3.3-3.6-9.5-7.2-9.5-10.9C815.9,1283.9,816.2,1244,816.2,1204.4z"/>
			<path class="st10" d="M524,999.5c42.5,16.5,85.2,32.7,127.5,49.6c6.5,2.6,11.7,8.5,17.5,12.8c-35.6,1.1-71.2,2-106.8,3.4
				c-35.5,1.4-70.9,3.2-106.4,4.8C483.4,1051.3,504.7,1026.3,524,999.5z"/>
			<path class="st36" d="M498.5,1265.7c9.4,15.6,17.9,29.7,26.4,43.9c2.1,3.5,5.5,6.9,5.8,10.6c0.3,4.2-2.3,8.6-3.6,12.8
				c-3.9-1.6-9.6-1.9-11.5-4.8c-12.1-18.1-23.2-36.8-34.9-55.1c-2.3-3.6-6.2-6.3-9.3-9.4c-1.4,0.5-2.8,1.1-4.1,1.6
				c0,11.9,0,23.8,0,35.7c0,8.2,0.9,16.5-0.6,24.4c-0.7,3.5-6.1,7.8-9.9,8.5c-2.6,0.4-6.3-4.8-9-7.9c-1-1.1-0.6-3.5-0.6-5.3
				c0-38.5,0-77.1,0-116.5c22.4,0,44.5-1.3,66.3,0.5c13,1.1,19.9,15.3,19.2,31.9c-0.7,15-8.5,24.9-21.5,27.4
				C507.5,1264.7,504,1265,498.5,1265.7z M467.6,1244.8c12.2,0,23.4-0.3,34.7,0.1c8.1,0.3,11.3-4.4,9.8-10.8
				c-0.9-4.1-5.5-9.9-8.9-10.3c-11.5-1.3-23.3-0.5-35.6-0.5C467.6,1230.6,467.6,1236.8,467.6,1244.8z"/>
			<path class="st34" d="M1102.7,308.1c-9.3,23.8-18.4,47.7-27.8,71.5c-5,12.5-10.5,24.9-15.8,37.3c-29-8.9-58-17.8-87-26.8
				c-2.8-7.5-5.6-14.9-8.4-22.4c14.6-8.3,29.1-16.5,43.7-24.8c3.4,4.6,6.7,9.3,11,15.2C1044.1,337.4,1070.1,316.9,1102.7,308.1z"/>
			<path class="st37" d="M688,302.3c-1.7,0-3.4,0-5.1,0.1c-0.4-1.6-0.9-3.3-1.3-4.9c1.7-0.5,3.7-0.6,5.2-1.5
				c29.5-16,59-32.1,88.4-48.4c1.3-0.7,1.8-2.9,2.7-4.4c34.2-5.8,68.1-6.3,102.6,5.2c-7.1,15.8-13.8,30.8-20.5,45.7
				c-5.3-1.7-10.6-4.3-16-4.7c-5.2-0.5-10.6,1.7-15.9,2c-43.1,2.3-86.3,4.3-129.4,6.7C695,298.2,691.6,300.8,688,302.3z"/>
			<path class="st33" d="M1700.1,770.9c-11.6-9.3-23-18.7-34.7-27.8c-2.6-2-5.8-3.3-8.7-4.9c-26.2-23.5-52.4-47-78.6-70.5
				c-8.6-7.8-17.3-15.5-26.1-23.3c2.4-1.3,4.3-2.4,6.2-3.4c47.7,5.8,90.5,22.6,123,59c13,14.6,22,32.7,32.8,49.2
				c0.9,1.8,1.8,3.6,2.7,5.4l0,0C1716.3,765.2,1709.3,769.2,1700.1,770.9z"/>
			<path class="st36" d="M586.1,1224.5c-3.8-0.8-7.2-0.4-8.8-1.9c-2.9-2.8-6.7-6.9-6.4-10.2c0.3-3.2,5-8.3,8-8.5
				c12.6-0.8,25.5-1,38,0.7c5.5,0.8,12.5,5.3,15.2,10.2c8.2,14.5,15.5,29.7,21.4,45.2c2.3,6.1,0.7,14.3-1,21.1
				c-1.5,6.5-5.3,12.4-8.3,18.5c-17.7,36.3-21.4,38.6-61.8,34.9c-4.3-0.4-8.2-5.2-12.3-7.9c2.9-3.8,5.7-7.7,8.6-11.5
				c2.4-3.1,6.9-6,6.9-9C586.3,1279.3,586.1,1252.6,586.1,1224.5z M606.6,1314.9c11.8-4.9,29.4-37.2,28-48.9
				c-1.8-14.8-19-40.5-28-41.6C606.6,1254.2,606.6,1283.9,606.6,1314.9z"/>
			<path class="st35" d="M263.6,1293.1c-3.9,0-8.5,1.3-11.8-0.3c-4.2-2.1-7.4-6.4-11-9.7c3.6-3.4,6.8-9.2,10.8-9.7
				c10.7-1.4,21.6-0.5,34.9-0.5c-0.7,14.6-0.1,28.6-2.3,42.2c-2.2,13.3-13,18.9-25.7,19.7c-9.5,0.6-19.1,0.2-28.6,0.1
				c-17.9-0.1-29.1-10-30-27.8c-0.7-14-0.9-28.2,0-42.2c2.4-35.4,39.9-66.4,74.7-61.4c4.3,0.6,7.9,6.7,11.8,10.2
				c-4.2,3.2-9.1,9.8-12.5,9.1c-28.1-5.8-39.2,14.7-49.8,32.9c-4.9,8.4-3.1,21-3.2,31.7c-0.1,30.3-3.9,27.2,27.8,27.3
				C265.8,1314.7,266.9,1313,263.6,1293.1z"/>
			<path class="st36" d="M1739.9,1314.7c-20-25.7-37.5-48-54.9-70.4c-2.8-3.6-5.8-7.1-7.8-11.1c-6.6-13.3,0.5-28.2,15.3-29.3
				c15.8-1.2,31.8-1.1,47.6,0.2c11.7,1,18.4,9.7,19.6,21.1c0.4,3.5-2.8,8.8-5.9,10.7c-2.4,1.5-9.9-0.2-10.5-2
				c-4.4-13.3-15-10.5-24.6-10.6c-7.2-0.1-14.4,0-24.6,0c13.1,16.7,24.6,31.4,36.2,46.2c7.8,10,16.9,19.3,23.1,30.2
				c3.8,6.6,6.5,17.3,3.7,23.2c-2.9,5.9-13,10.4-20.5,11.5c-12.9,1.8-26.3,0.7-39.4,0.4c-12.3-0.3-23.7-12.5-22.2-24
				c0.4-3.1,2.7-7.6,5.1-8.4c3.3-1.1,10.2-0.1,10.9,1.7c5.6,15.1,18.1,10,28.6,10.7C1724.9,1315,1730.3,1314.7,1739.9,1314.7z"/>
			<path class="st21" d="M455.8,1070.2c35.5-1.6,70.9-3.4,106.4-4.8c35.6-1.4,71.2-2.3,106.8-3.4c2.7,0.1,5.4,0.2,8.1,0.3
				c-7.2,9.8-14.5,19.7-21.7,29.5c-77.9,0-155.8,0-236.8,0C428.1,1076.4,444.8,1077.9,455.8,1070.2z"/>
			<path class="st37" d="M655.4,1091.8c7.2-9.8,14.5-19.7,21.7-29.5c0,0-0.3-0.5-0.3-0.5c2.8-0.8,5.7-1.5,8.5-2.3
				c47.3-2.7,94.7-5.5,142-8.2c0.3,4.6,1.7,9.4,0.5,13.6c-2.3,8.5-6,16.6-9.9,26.9C766.7,1091.8,711,1091.8,655.4,1091.8z"/>
			<path class="st36" d="M694,1203.2c24.5,0,48.5-0.5,72.4,0.5c4.1,0.2,7.9,6.4,11.9,9.8c-4.1,3.3-8,9-12.2,9.3
				c-17.1,1.1-34.3,0.4-52.3,0.4c0,11.8,0,22.5,0,35.3c5.9,0,12.4-1.3,18,0.4c5.1,1.5,9.2,6.3,13.7,9.7c-4.3,3.4-8.2,8.3-13.2,9.9
				c-5.3,1.7-11.6,0.4-18.4,0.4c0,12.1,0,23.1,0,35.9c16.9,0,33.6-0.5,50.2,0.3c4.6,0.2,11.9,3.1,13.1,6.4c3.4,9.3-3,13.1-11.7,13.2
				c-23.6,0.1-47.2,0-71.6,0C694,1290.7,694,1247.5,694,1203.2z"/>
			<path class="st38" d="M827.3,1051.3c-47.3,2.7-94.7,5.5-142,8.2c0-0.8,0-1.7,0-2.5c40.6-25.3,81.3-50.5,121.7-76.2
				c3.2-2,4.6-6.9,6.8-10.5C818.3,997.4,822.8,1024.3,827.3,1051.3z"/>
			<path class="st36" d="M1058.9,1203.1c20.3,0,38.5-0.4,56.6,0.1c18.7,0.6,28.1,10.3,28.6,29c0.3,10,0.4,20-0.4,29.9
				c-1.2,13.9-9.1,20.2-23.2,21c-13.4,0.7-26.7,2.4-41.8,3.8c0,11.6,0.9,23.8-0.5,35.7c-0.5,4.3-6.2,8-9.5,12
				c-3.3-3.6-9.3-7.2-9.4-10.9C1058.6,1283.9,1058.9,1244.1,1058.9,1203.1z M1079.3,1266.1c12.3,0,23.2,0.9,33.9-0.5
				c4.1-0.6,10.8-6.9,10.5-9.9c-1.3-10.8,7.2-23.8-6-32.2c-0.7-0.4-1.8-0.3-2.7-0.3c-11.7,0-23.3,0-35.7,0
				C1079.3,1237.8,1079.3,1251.1,1079.3,1266.1z"/>
			<path class="st35" d="M323,1325.6c2.6-9.1,4.4-15.6,6.3-22.1c8.6-29.1,16.8-58.3,26.1-87.2c1.6-5,7.6-8.6,11.6-12.8
				c3.8,4.3,9.6,8,11.1,12.9c10.1,32.9,19.3,66.1,28.8,99.1c2.1,7.2,4.7,15.4-4.9,18.3c-10.7,3.2-11.9-6.3-14.6-13.5
				c-1.7-4.7-4.5-12.1-7.6-12.5c-9.7-1.4-20.4-1.8-29.4,1.2c-3.9,1.3-3.8,12.5-7.3,18.1c-2.1,3.5-7.7,6.9-11.5,6.6
				C328.4,1333.5,325.4,1328,323,1325.6z M367.9,1249c-0.8,0.1-1.6,0.3-2.4,0.4c-3.3,11.9-6.5,23.7-9.9,36c8,0,14.5,0,22.1,0
				C374.2,1272.4,371,1260.7,367.9,1249z"/>
			<path class="st35" d="M1387.2,1326.2c-1.8,1.8-4.4,6.8-8.1,7.7c-3,0.7-7.2-3.5-10.7-5.7c-0.6-0.4-0.6-1.6-1-2.5
				c-2.6-6.1-3.9-15.9-8.1-17.4c-8.1-2.9-17.9-1.4-26.9-0.9c-2.2,0.1-4.9,3.1-6.1,5.4c-1.8,3.6-1.5,8.6-3.9,11.4
				c-3.6,4.1-8.9,6.7-13.4,9.9c-1.9-5.3-6.6-11.3-5.4-15.8c7.2-27.6,15.7-54.8,23.8-82.2c2.6-8.7,4.7-17.6,8.5-25.7
				c1.5-3.2,6.7-6.2,10.4-6.3c2.8-0.1,7.6,3.8,8.5,6.8c10.9,36.4,21.3,73,31.9,109.5C1386.8,1321.3,1386.8,1322.2,1387.2,1326.2z
				 M1346.1,1249c-0.8,0.2-1.7,0.4-2.5,0.6c-3.1,11.7-6.3,23.3-9.7,36c7.8,0,14.4,0,22.1,0C1352.5,1272.8,1349.3,1260.9,1346.1,1249
				z"/>
			<path class="st38" d="M688,302.3c3.5-1.5,7-4,10.6-4.2c43.1-2.4,86.3-4.4,129.4-6.7c5.3-0.3,10.7-2.4,15.9-2
				c5.4,0.5,10.7,3.1,16,4.7c-6.4,19.1-12.9,38.1-19.3,57.2c-19.8-7-39.4-14.5-59.3-21c-29.2-9.6-58.6-18.6-88-27.7
				C691.8,302,689.8,302.3,688,302.3z"/>
			<path class="st27" d="M960.4,449.2c1.3,16.5,2.6,33,3.9,49.4c0.9,0.4,1.8,0.7,2.7,1.1c4.3-16.8,8.6-33.6,12.9-50.4
				c2.8-9.1,9.1-12.7,18.5-14c8.7-1.2,17-5,25.5-7.5c9.4-2.8,18.9-5.4,30.1-8.5c-2.7,7.5-4.3,11.9-5.9,16.3
				c-6.2,7.1-13.1,13.6-18.5,21.3c-24.4,34.5-48.4,69.4-72.8,104c-1.8,2.5-5.5,3.7-8.3,5.5c-0.5-0.8-0.6-1.6-0.3-2.5
				c0.7-6.2,1.3-12.3,2-18.4c0.7-8.4,1.4-16.8,2.1-25.2c0.2-3.7,0.4-7.3,0.7-11c0.8-11.8,1.5-23.7,2.3-35.5
				C957,465.6,958.7,457.4,960.4,449.2z"/>
			<path class="st32" d="M1553,449.4c-0.1,0.5,0,1-0.2,1.3c-0.5,0.6-1.1,1-1.7,1.5c-1-2.7-2.1-5.3-3.6-9.3
				c-22.8,16.1-44.6,31.5-66.4,46.8c-15,10.6-30,21.2-45.2,31.5c-1.2,0.8-3.8-0.6-5.8-1c0-1.8,0-3.6,0.1-5.4
				c1.8-1.8,3.6-3.6,5.4-5.5c16.5-29.6,32.5-59.5,49.8-88.6c6.2-10.5,17.1-3.8,25.5-2c9.3,2,18,6.8,27.2,9.5c2.3,0.7,5.7-2,8.6-3.2
				C1548.7,433.1,1550.8,441.3,1553,449.4z"/>
			<path class="st39" d="M854.6,478.9c17.1,24.7,34.2,49.4,52.5,75.9c17.2-23.8,27.5-48.7,29.5-77.2c2-28.3-3.1-55.3-12.1-82.3
				c5.9,5.4,11.8,10.8,17.8,16.1c1.6,3.2,3.3,6.3,4.9,9.5c-0.9,2.4-2.5,4.8-2.6,7.2c-1,28.8-1.8,57.7-2.7,86.5
				c-0.6,0.5-0.7,1-0.4,1.7c-0.6,1.2-1.2,2.4-1.7,3.7c-0.3,5.3-0.6,10.6-0.8,15.9c-1.1,5.6-2.2,11.2-3.3,16.7
				c-0.7,4.5-1.4,8.9-2.2,13.4c-0.7,2.8-1.3,5.7-2,8.5c-1.2,5.3-2.3,10.5-3.5,15.8c-1.5,3.8-3.1,7.7-4.6,11.5
				c-1.1,3.3-2.1,6.6-3.5,10.8c-3.7-4.8-6.1-7.8-8.5-10.9c-0.7-1-1.4-2.1-2-3.1c-3-4.4-5.9-8.8-8.9-13.2c-0.7-1-1.4-2-2.1-3
				c-1-2.7-2-5.3-3-8c0.3-3.1,1.6-6.4,0.8-9.2c-9.5-36.1-32.7-61.5-64-80.4C839.6,483,847.1,481,854.6,478.9z"/>
			<path class="st35" d="M1634.7,1204.3c0.7,8.1,2.1,16.3,1.5,24.4c-0.2,2.8-5.1,7.4-7.9,7.5c-3.6,0.1-7.5-3.2-10.8-5.7
				c-3.4-2.6-6.3-5.9-9.3-9c-1.2,0.7-2.5,1.5-3.7,2.2c0,29.8,0.2,59.6-0.1,89.3c-0.1,8.5,3,20.9-10.3,21
				c-13.4,0.1-10.5-12.2-10.6-20.8c-0.2-29.4-0.1-58.8-2.9-91.2c-3.4,2.7-6.6,5.6-10.2,8.1c-3.4,2.4-7.1,6-10.6,5.9
				c-2.8-0.1-7.8-4.6-8-7.4c-0.6-8,0.8-16.2,1.4-24.3c7.5,0.8,15,2.3,22.5,2.2C1595.2,1206.2,1614.9,1205.1,1634.7,1204.3z"/>
			<path class="st38" d="M1118.9,1032.3c0.9,0,1.9,0,2.9-0.1c17.2,12.8,34.4,25.5,51.4,38.4c9,6.8,17.7,14.1,26.5,21.2
				c-37.5,0-74.9,0-108.7,0c-2.8-9.9-5.7-17.8-7.3-26c-1-5.5-0.2-11.4-0.2-17.1C1095.4,1043.2,1107.2,1037.8,1118.9,1032.3z"/>
			<path class="st35" d="M1199.8,1314.7c17.5,0,33.3,0,49,0c7.5,0,15.9,0,15.8,10.3c-0.2,10.1-8.6,9.9-16.1,9.9
				c-22.6,0-45.2,0-69.3,0c0-34,0-66.9,0-99.8c0-6.3-1.2-13,0.4-18.9c1.3-4.7,6-8.5,9.1-12.7c3.7,4.2,10.4,8.2,10.5,12.5
				c1,26.2,0.5,52.5,0.5,78.8C1199.8,1300.9,1199.8,1307.1,1199.8,1314.7z"/>
			<path class="st40" d="M161.4,858.7c15.4,7,30.7,14.3,46.2,21c11,4.8,22.3,8.9,36.2,14.4c-25.8,18.7-50,36.2-74.2,53.7
				c-3.7-28.2-7.4-56.4-10.8-84.7C158.7,861.7,160.5,860.1,161.4,858.7z"/>
			<path class="st38" d="M1007.4,342.9c-14.6,8.3-29.1,16.5-43.7,24.8c-15.6-26.3-31.2-52.7-46.8-79c3.5-1.8,6.8-4.2,10.5-5.2
				c5.5-1.5,11.2-2,16.8-2.9C971.1,295.5,990,318.4,1007.4,342.9z"/>
			<path class="st39" d="M1010.4,854.5c-58.8,0.2-117.7,0.3-176.5,0.5c-29.5,0.1-33.6,4.1-34.5,33.1c-2.4,4.2-4,11-7.5,12.1
				c-16.1,5-32.6,8.3-49,12.2l-0.3-0.2c1.8-3.5,3.7-7.1,5.5-10.7c2.1-1.7,4.6-3.2,6.1-5.3c10-13.9,19.5-28.2,29.9-41.8
				c2.8-3.6,8.3-7.2,12.6-7.2c73-0.3,146,0,219,0.2C1013.9,849.9,1012.2,852.2,1010.4,854.5z"/>
			<path class="st6" d="M1048.1,435.7c1.6-4.4,3.2-8.8,5.9-16.3c-11.2,3.1-20.7,5.7-30.1,8.5c-8.5,2.5-16.8,6.3-25.5,7.5
				c-9.4,1.3-15.7,4.9-18.5,14c-2.6-19.8-5.2-39.5-7.8-59.3c29,8.9,58,17.8,87,26.8c1.6,1.8,3.2,3.7,4.8,5.5
				c5.8,10.3,11.7,20.7,17.5,31c-15.8,13.2-31.7,26.3-47.5,39.5c0.4-5.2,0-10.6,1.4-15.6C1039.2,463.3,1043.8,449.5,1048.1,435.7z"
				/>
			<path class="st2" d="M434.1,395c4.6,17.5,9.4,34.9,13.7,52.4c1,4,0,8.5,0,12.8c-15.7,10.5-31.3,21.1-47.1,31.4
				c-4.4,2.9-9.5,4.9-14.2,7.3C393.2,460.1,408.2,425.1,434.1,395z"/>
			<path class="st8" d="M1219.4,356.6c-19.4-16.5-38.8-33-58.1-49.7c-3.4-2.9-6.2-6.5-9.3-9.7c14.4,0.1,28.9,0.2,43.3,0.3
				c2.3,1.6,4.4,3.7,7,4.8c17.7,7.4,35.4,14.5,53.1,21.8C1243.5,334.9,1231.5,345.8,1219.4,356.6z"/>
			<path class="st30" d="M1118.9,1032.3c-11.8,5.5-23.6,10.9-35.4,16.4c1.9-6,4.6-11.8,5.4-17.9c0.9-7-0.8-14.3,0.3-21.3
				c2.2-14.1,5.4-28.1,8.3-42.1c2.5,6.3,5.3,12.5,7.4,19C1109.8,1001.6,1114.3,1017,1118.9,1032.3z"/>
			<path class="st33" d="M1768.6,713c-11.9,8.9-18.1,26-36.6,25.4c-4.2-11.3-8.9-22.4-12.3-33.9c-1.7-5.8-0.8-12.4-1.1-18.7
				c1.8-1.1,3.7-2.1,5.5-3.2C1739,692.8,1753.8,702.9,1768.6,713z"/>
			<path class="st6" d="M742.9,912.4c16.4-3.9,33-7.3,49-12.2c3.4-1,5-7.9,7.5-12.1c2.7,15.4,5.5,30.7,8.2,46.1
				c-15.9-4.7-31.8-9.2-47.6-14.2C754.1,918.1,748.6,915,742.9,912.4z"/>
			<path class="st21" d="M286.4,1081.5c9.8-1,19.6-2.1,29.4-2.9c13.9-1.1,27.8-2,41.8-3c7.1,2.3,14.3,4.6,25.9,8.4
				c-7.6,3.8-11.9,7.9-16,7.7c-25.5-1.3-51.1-3.5-76.6-5.8C289.4,1085.8,287.9,1083.1,286.4,1081.5z"/>
			<path class="st6" d="M854.6,478.9c-7.5,2-15,4-22.5,6.1c-9.7-4.5-19.4-8.9-29.2-13.4c12.6-7.8,25.2-15.5,37.7-23.3
				C845.3,458.6,849.9,468.8,854.6,478.9z"/>
			<path class="st38" d="M777.9,243.2c-0.9,1.5-1.4,3.7-2.7,4.4c-29.4,16.2-58.9,32.3-88.4,48.4c-1.5,0.8-3.5,1-5.2,1.5
				c-1.9-0.8-3.8-1.6-5.7-2.4C705.4,268.9,739.5,251.7,777.9,243.2z"/>
			<path class="st41" d="M947.1,421c-1.6-3.2-3.3-6.3-4.9-9.5c-1.7-9.1-3.3-18.2-5-27.4c3.3-0.4,6.6-0.8,9.9-1.2
				c4.5,22.1,8.9,44.2,13.4,66.3c-1.7,8.2-3.4,16.4-5.1,24.6c-0.8-5.2-1.6-10.3-2.4-15.5C951,445.9,949,433.5,947.1,421z"/>
			<path class="st41" d="M675.9,295c1.9,0.8,3.8,1.6,5.7,2.4c0.4,1.6,0.9,3.3,1.3,4.9c2.4,7.8,4.8,15.5,7.2,23.3
				c-13.8-0.7-27.7-1.5-41.7-2.2C657.5,314,666.7,304.5,675.9,295z"/>
			<path class="st30" d="M1010.4,854.5c1.8-2.3,3.5-4.6,5.3-6.9c2.2-1,4.4-1.9,6.6-2.9c14,0.8,27.9,1.7,41.9,2.5
				c2.4,13.8,13,5.3,19.7,7.2C1059.4,854.4,1034.9,854.5,1010.4,854.5z"/>
			<path class="st37" d="M944.2,280.5c-5.6,0.9-11.3,1.4-16.8,2.9c-3.7,1-7,3.5-10.5,5.2c-6.4-9.5-12.9-18.9-21.3-31.2
				C917.1,260,931.5,268.6,944.2,280.5z"/>
			<path class="st10" d="M1255.5,324c-17.7-7.2-35.4-14.4-53.1-21.8c-2.5-1.1-4.7-3.1-7-4.8c23.2,5.7,46.5,11.3,69.7,17
				c0,1.7,0.1,3.3,0.1,5C1261.9,321,1258.7,322.5,1255.5,324z"/>
			<path class="st32" d="M1700.1,770.9c9.2-1.7,16.2-5.7,16.5-16.3c4.4,13.6,8.8,27.3,13.3,40.9C1719.9,787.3,1710,779,1700.1,770.9
				z"/>
			<path class="st27" d="M1637.5,1091.8c5.9-6.6,10.6-15.3,17.9-19.3c11.5-6.3,10.3,6.3,15.9,13.3c-7,0.5-11.8,0.8-16.5,1.2
				c-0.3,0-0.5,0.5-0.8,0.7c0.9,0.6,1.9,1.3,2.8,1.9C1650.4,1090.3,1643.9,1091.1,1637.5,1091.8z"/>
			<path class="st38" d="M947,382.9c-3.3,0.4-6.6,0.8-9.9,1.2c-2-8.9-3.9-17.8-5.8-26.7C941.1,363.5,944.7,372.9,947,382.9z"/>
			<path class="st36" d="M1634.7,1204.3c-19.7,0.8-39.4,1.8-59.2,2.2c-7.5,0.1-15-1.4-22.5-2.2
				C1580.2,1204.3,1607.4,1204.3,1634.7,1204.3z"/>
			<path class="st32" d="M1716.6,754.5c-0.9-1.8-1.8-3.6-2.7-5.4C1714.8,750.8,1715.7,752.7,1716.6,754.5z"/>
			<path class="st28" d="M1350.3,874.3l-1,0c0,0-1-0.1-1-0.1c-11.8-45.3-23.7-90.6-35.5-135.8c6.2,4.6,12.3,9.2,18.5,13.7
				c13.7,9.9,27.5,19.6,41.3,29.4c21.4-3.2,42.7-6.7,64.2-9.3c23.4-2.8,47-4.8,70.5-7.1c-23.2,16.5-46.3,33.2-69.8,49.4
				c-27.9,19.2-56.1,38-84.2,57c-0.8,0.9-1.7,1.7-2.5,2.6C1350.9,874.2,1350.3,874.3,1350.3,874.3z"/>
			<path class="st27" d="M1350.9,874.2c0.8-0.9,1.7-1.7,2.5-2.6C1352.6,872.4,1351.8,873.3,1350.9,874.2z"/>
			<path class="st32" d="M1372.7,781.6c-13.8-9.8-27.6-19.6-41.3-29.4c-6.2-4.5-12.3-9.1-18.5-13.7c-17.4-14.3-34.7-28.7-52.1-43
				c-14.4-11.3-28.8-22.5-43.3-33.8c-0.2-1.7-0.3-3.5-0.5-5.2c11.2-4.8,22.8-8.7,33.4-14.6c13.1-7.2,25.3-16,38-24.1
				c21.7-13.9,43.5-27.6,65-41.7c13.4-8.8,26-18.9,39.6-27.4c8.1-5.1,17.4-8.2,26.1-12.2c-3.9,21.2-7.5,42.5-11.7,63.7
				c-11.3,56-22.8,111.9-34.1,167.9C1372.5,772.5,1372.9,777.1,1372.7,781.6z"/>
			<path class="st9" d="M1659.3,1054.1c-8.1-20-16.4-39.8-24.2-59.9c-19.3-50.1-38.2-100.3-57.6-150.3
				c-10.9-28.3-22.5-56.4-33.7-84.5c1.6-1.4,3-3.8,4.7-4c17.7-2.3,35.5-4.2,53.3-6.5c10.1-1.3,20.1-3.1,30.2-4.7
				c3.5,38,7,76,10.4,114c2.1,24.2,3.8,48.4,6.1,72.5c3.1,32.6,6.8,65.2,9.9,97.8C1659.3,1037,1659.1,1045.6,1659.3,1054.1z"/>
			<path class="st33" d="M1419.2,536.5c-8.8,4-18,7.1-26.1,12.2c-13.6,8.5-26.2,18.6-39.6,27.4c-21.5,14.2-43.3,27.8-65,41.7
				c-12.6,8.1-24.9,16.9-38,24.1c-10.6,5.8-22.3,9.8-33.4,14.6c-8.7-13-17.4-26-26-39c30.1-14.3,56.7-33.5,78.8-58.4
				c17.6-19.8,34.3-40.4,51.3-60.6c2.7,1.6,5.1,4,8,4.9c29,8.5,58,16.7,87,24.9c1,1.9,2.1,3.9,3.1,5.8
				C1419.3,534.8,1419.3,535.7,1419.2,536.5z"/>
			<path class="st42" d="M354.9,797.3c-1.1-1.3-2.1-2.5-3.2-3.8c1.2-0.4,2.4-0.8,3.6-1.1c33.4-1.9,66.8-3.2,100-5.8
				c33.7-2.7,67.2-7.1,100.8-10.2c26-2.4,52.2-3.8,78.3-5.9c43.1-3.5,86.3-7.1,129.4-10.7c0,8.2-0.1,16.4-0.1,24.7
				c-25.6,14-51.2,27.9-76.7,41.8c-6,2.3-12.6,3.7-17.9,7c-16.7,10.3-33.5,17.8-54,13c-23.4-5.5-47-10.5-70.7-15
				c-25.9-4.9-52-9.1-78-13.5c-18-3-36.1-5.8-54.1-8.8c-9.1-1.8-18.1-3.5-27.2-5.3c-2.7-0.3-5.3-0.5-8-0.8
				C369.8,801.1,362.4,799.2,354.9,797.3z"/>
			<path class="st32" d="M374.2,809c-11.3,19.5-22.4,39-33.9,58.3c-9.2,15.5-18.6,30.8-28.2,46.1c-1.3,2-4,3-6.1,4.5
				c-9-3.6-18.1-6.8-26.9-11c-9.4-4.4-20.7-6.7-24.4-18.7c33.3-23.4,66.1-46.7,99.3-69.6C360.1,814.4,367.4,812.1,374.2,809z"/>
			<path class="st8" d="M306,923.4c-8.2,14.5-16.4,29-24.6,43.6C280.5,954.5,296.5,926.2,306,923.4z"/>
			<path class="st29" d="M385.1,803.8c9.1,1.8,18.1,3.5,27.2,5.3c2.5,1.7,4.8,4.2,7.5,5c38.4,12,76.8,23.6,115.2,35.6
				c25.2,7.9,50.2,16.3,75.3,24.3c27.7,8.7,55.4,17.2,83.1,25.7c14.5,4.4,29.1,8.6,43.7,12.9c-0.2,4.7,0.9,10-0.8,14
				c-16.3,39.1-33.1,77.9-49.4,116.9c-1.7,4-1.2,9-1.7,13.5c0,0.8,0,1.7,0,2.5c-2.8,0.8-5.7,1.5-8.5,2.3c-4.2-5-7.8-10.7-12.7-14.9
				c-67.3-58.3-134.8-116.4-202-174.7C436.1,849.7,410.8,826.6,385.1,803.8z"/>
			<path class="st27" d="M1130.2,836c15.3-21.3,16.2-45.9,16.8-70.7c15.1-8.6,30.5-16.7,45.2-25.9c23.1-14.3,45.8-29.3,68.7-44
				c17.4,14.3,34.7,28.7,52.1,43c11.8,45.3,23.7,90.6,35.5,135.8c-39.9-7-79.8-14.1-119.7-21.1C1195.8,847.4,1163,841.7,1130.2,836z
				"/>
			<path class="st27" d="M453.3,460.3c1.9-0.1,3.8-0.2,5.7-0.3c31.5,5,63.1,9.9,94.6,15c36.4,5.9,72.8,12,109.2,18
				c21.8,3.6,43.5,7.3,65.2,11.3c2.3,0.4,4.2,3.2,6.2,4.9c0.8,1.9,1.6,3.7,2.4,5.6c-11,6-22.2,11.7-32.9,18.2
				c-33.1,20.2-66,40.5-98.9,61c-33.3,20.7-66.4,41.6-99.6,62.5c-0.9,0-1.8,0-2.7,0c-6.8-27-13.5-54.1-20.3-81.1
				C472.6,537,462.9,498.6,453.3,460.3z"/>
			<path class="st29" d="M1321.2,498.4c8-11.8,16-23.6,24.1-35.4c23.7,21,47.4,41.9,71.1,62.9c0,0.8-0.1,1.6-0.2,2.4
				c-29-8.3-58.1-16.5-87-25C1326.3,502.4,1323.8,500.1,1321.2,498.4z"/>
			<path class="st7" d="M1435.6,509.3c-1.8,1.8-3.6,3.6-5.4,5.5c-1.3-1.2-2.6-2.3-3.9-3.5C1429.3,510.6,1432.4,510,1435.6,509.3z"/>
			<path class="st27" d="M776.1,752.5c-4.1,2.4-8.1,4.9-12.2,7.3c-43.1,3.6-86.3,7.3-129.4,10.7c-26.1,2.1-52.2,3.5-78.3,5.9
				c-33.6,3.1-67.2,7.5-100.8,10.2c-33.3,2.7-66.7,4-100,5.8c23.2-16.1,46.3-32.5,69.8-48.2c26.5-17.8,53.4-34.9,80.1-52.3
				c1.8-0.9,3.6-1.8,5.4-2.7c17.3,3.2,34.6,6,51.7,9.5c41.5,8.5,82.9,17.1,124.3,26.2c34.2,7.5,68.3,15.9,102.4,23.9
				C784.8,750,780.4,751.3,776.1,752.5z"/>
			<path class="st33" d="M1120.9,434.7c-13.2,6.2-26.3,12.4-39.5,18.6c-5.8-10.3-11.7-20.7-17.5-31c13.1,2.9,26.2,5.7,39.2,8.5
				C1109,432.1,1115,433.4,1120.9,434.7z"/>
			<path class="st28" d="M789.1,748.8c-34.1-8-68.2-16.4-102.4-23.9c-41.3-9.1-82.8-17.7-124.3-26.2c-17.2-3.5-34.5-6.4-51.7-9.5
				c-1.8-10.9-3.7-21.8-5.5-32.7c33.2-20.8,66.3-41.8,99.6-62.5c32.9-20.5,65.8-40.9,98.9-61c10.7-6.5,21.9-12.1,32.9-18.2
				c10.2,20.2,20.3,40.4,30.5,60.5c0.2,3.6-0.3,7.4,0.8,10.8c10.1,33.5,20.7,66.9,30.7,100.5c6.2,20.6,11.8,41.4,17.7,62.1
				C807.1,748.7,798.1,748.7,789.1,748.8z"/>
			<path class="st33" d="M737.1,912.6c-14.5-4.3-29.1-8.4-43.7-12.9c-27.7-8.5-55.5-17-83.1-25.7c-25.2-7.9-50.2-16.4-75.3-24.3
				c-38.4-12-76.8-23.7-115.2-35.6c-2.8-0.9-5-3.3-7.5-5c18,2.9,36.1,5.7,54.1,8.8c26,4.4,52.1,8.6,78,13.5
				c23.7,4.5,47.2,9.5,70.7,15c20.4,4.8,37.3-2.7,54-13c5.4-3.3,11.9-4.7,18-7c4.6,8.8,8.7,17.9,13.9,26.3
				c12.4,20.1,25.3,39.9,38,59.9l-1-0.1L737.1,912.6z"/>
			<path class="st31" d="M739,912.5c-12.7-19.9-25.6-39.8-38-59.9c-5.2-8.4-9.3-17.5-13.9-26.3c25.6-14,51.2-27.9,76.7-41.8
				c4.8,16.3,9.6,32.6,14.4,48.9c-2.8,1.9-7.2,3.2-8.1,5.8c-7.7,20.7-14.7,41.6-22,62.5c-1.8,3.5-3.7,7.1-5.5,10.7
				C741.4,912.3,740.2,912.4,739,912.5z"/>
			<path class="st41" d="M987.4,558.1c-14.4,13.5-28.8,27-43.3,40.5c-0.8-0.7-1.7-1.3-2.5-2c1-5.3,2-10.5,3.1-15.8
				c1.3-4.7,2.6-9.5,3.8-14.2c2.8-1.8,6.5-3,8.3-5.5c24.4-34.6,48.3-69.5,72.8-104c5.4-7.6,12.3-14.2,18.5-21.3
				c-4.3,13.8-8.9,27.5-12.8,41.5c-1.4,4.9-1,10.4-1.4,15.6c-9.1,11.9-18.2,23.7-28.7,37.4c31.6-19,60.7-36.6,89.8-54.2
				c0.9,1.5,1.9,3,2.8,4.5c-3.8,2.5-7.7,5-11.5,7.6c-1,0.7-1.9,1.4-2.9,2.2c0,0,0.1-0.1,0.1-0.1c-1.1,0.9-2.2,1.8-3.3,2.7
				c-7.1,3.8-14.1,7.7-21.2,11.5c-1.1,0.7-2.1,1.5-3.2,2.2c-0.9,0-1.7,0.4-2.4,1c-0.9,0.6-1.8,1.2-2.7,1.8c-4.6,3-9.1,6-13.7,9
				c-0.9,0.6-1.8,1.3-2.7,1.9c-5.5,4.2-11.1,8.3-16.6,12.5c-1.7,0.6-3.3,1.2-5,1.8c-7.4,6.8-14.8,13.6-22.2,20.4
				C989.5,556,988.5,557,987.4,558.1z"/>
			<path class="st41" d="M748.1,901.6c7.2-20.8,14.3-41.8,22-62.5c1-2.6,5.3-3.9,8.1-5.8c4.5,2.9,9,5.9,13.5,8.8
				c1.1,0.7,2.1,1.3,3.2,2c75.8,0.2,151.6,0.3,227.4,0.5c-2.2,1-4.4,1.9-6.6,2.9c-73-0.2-146-0.5-219-0.2c-4.3,0-9.8,3.6-12.6,7.2
				c-10.4,13.6-19.9,27.9-29.9,41.8C752.7,898.4,750.2,899.8,748.1,901.6z"/>
			<path class="st28" d="M1260.8,695.5c-22.9,14.7-45.6,29.7-68.7,44c-14.8,9.1-30.1,17.3-45.2,25.9c-4-4.1-8-8.2-12.1-12.3
				c-4.3-1.3-8.6-3.8-13-3.8c-30-0.4-60-0.3-90-0.4c-0.5-3.5-0.6-7.2-1.6-10.6c-10.2-34.4-20.6-68.7-30.9-103.1
				c1.7-0.2,3.5-0.4,5.2-0.5c8.1,0.3,16.4-0.2,24.4,1.1c18.6,2.9,37,7.4,55.7,9.7c22.1,2.8,44.4,3.9,66.7,5.8
				c0.9,0.1,1.8,0.3,2.7,0.4c21.2,3.4,42.5,6.8,63.7,10.2C1232,672.9,1246.4,684.2,1260.8,695.5z"/>
			<path class="st3" d="M1217.6,661.7c-21.2-3.4-42.5-6.8-63.7-10.2c-0.9-0.1-1.8-0.4-2.7-0.4c-22.2-1.9-44.5-3-66.7-5.8
				c-18.7-2.3-37.1-6.8-55.7-9.7c-8-1.2-16.2-0.8-24.4-1.1l0-1.2c27.6,0.4,55.2,0.7,82.9,1.3c35.7,0.8,70.4-3.9,103.7-17.2
				c8.7,13,17.3,26,26,39C1217.3,658.2,1217.4,659.9,1217.6,661.7z"/>
			<path class="st41" d="M1031.9,748.7c30,0.1,60,0,90,0.4c4.3,0.1,8.7,2.5,13,3.8c-33.5-0.4-67-1-100.5-1
				c-82-0.2-164.1-0.1-246.1-0.1c-4.1,0-8.1,0.5-12.2,0.7c4.3-1.3,8.7-2.5,13-3.8c9,0,18,0,27-0.1c3.7-1.8,8.7-2.7,10.9-5.6
				c19.6-26.7,39-53.7,58-80.9c7.5-10.8,18.9-20,15.8-35.6c2,4.5,4,9,6,13.5c0.6,1.1,1.3,2.2,1.9,3.3c-0.2,0.8,0.1,1.5,0.7,2.1
				c0.7,2,1.4,4,2.1,6.1c0.7,3.5,1.4,6.9,2.1,10.4c1.2,4.6,2.3,9.2,3.5,13.8c0,0.8-0.2,1.6-0.4,2.3c-24.5,17.9-37.4,44.4-55.8,70.5
				C920.4,748.7,976.2,748.7,1031.9,748.7z"/>
			<path class="st39" d="M794.9,844.2c-1.1-0.7-2.1-1.3-3.2-2C792.8,842.8,793.8,843.5,794.9,844.2z"/>
			<path class="st27" d="M900.8,626.6c3.1,15.6-8.3,24.8-15.8,35.6c-19,27.2-38.3,54.2-58,80.9c-2.2,2.9-7.2,3.8-10.9,5.6
				c-5.9-20.7-11.5-41.5-17.7-62.1c-10.1-33.5-20.6-66.9-30.7-100.5c-1-3.4-0.5-7.2-0.8-10.8c30.8,36.8,76.9,43.1,121.4,60.2
				c-3.5-17-6.5-32-9.5-46.9c1.1-1.1,2.2-2.1,3.2-3.2c4.6,9.2,9.2,18.3,13.8,27.5c0.6,1.1,1.2,2.1,1.8,3.2c-0.1,0.9,0.3,1.7,1,2.3
				c0.6,1,1.3,2.1,1.9,3.2C900.7,623.2,900.8,624.9,900.8,626.6z"/>
			<path class="st39" d="M882.1,585.4c-1.1,1.1-2.2,2.1-3.2,3.2c-14-27.9-33.7-50.7-60.6-68.5c5.2,1.8,10.4,3.6,15.6,5.3
				c0.7-0.9,1.3-1.9,2-2.8c-12.1-11.5-24.2-23-36.2-34.5c0.1-0.4,0.2-0.9,0.3-1.3c8.1,4.2,16.7,7.5,24.1,12.7
				c28.9,20.2,54.7,43.5,71.5,75.2c-1,0-1.9-0.1-2.9-0.1c-0.9-0.9-1.8-1.9-2.7-2.8l0,0c-0.8-1.1-1.7-2.3-2.5-3.4c-1-1.6-2-3.2-3-4.7
				c-0.8-1-1.7-2-2.6-3c-0.8-0.9-1.7-1.7-2.5-2.6c-10.5-15.2-23-28.3-39.3-36.8c11.1,15.1,22.3,30.2,33.4,45.2
				c0.2,0.9,0.4,1.8,0.6,2.7c0.7,1,1.3,2,2,3C878.1,576.7,880.1,581,882.1,585.4z"/>
			<path class="st27" d="M1031.9,748.7c-55.8,0-111.5,0-171.2,0c18.4-26.1,31.4-52.6,55.8-70.5c0.4,1.8,0.8,3.7,1.2,5.5
				c0.6,1.2,1.2,2.4,1.8,3.6c-0.3,0.7-0.1,1.3,0.6,1.8c0.8,4.7,1.6,9.3,2.4,14c0.3,4.4,0.5,8.8,0.8,13.2c0.6,1.1,1.2,2.3,1.8,3.4
				c-0.3,0.8-0.1,1.5,0.5,2c-0.2,21.6,0,21.8,21.6,17.8c-0.8-3.6-1.6-7.1-2.4-10.7c-0.3-7.8-0.6-15.7-0.9-23.6
				c-0.7-1.8-1.3-3.6-2-5.5c-0.1-1.8-0.2-3.7-0.3-5.5c0-5.4,0.1-10.8,0.2-16.3c0.6-0.5,0.8-1,0.4-1.7c0.6-1.2,1.2-2.4,1.7-3.6
				c0.6-5.5,1.2-11.1,1.8-16.6c10.5-9,21.1-18,31.6-27c7.4,2,14.7,3.9,22.1,5.9c10.3,34.3,20.7,68.7,30.9,103.1
				C1031.3,741.5,1031.4,745.2,1031.9,748.7z"/>
			<path class="st6" d="M999.3,635c-7.4-2-14.7-3.9-22.1-5.9c5.4-16.4,10.8-32.9,16.2-49.3l-0.1,0.1c0.9-1.1,1.8-2.2,2.7-3.3
				c11.1-11.4,22.2-22.8,33.3-34.2c2.7-2,5.4-3.9,8.2-5.9c1.8-1.2,3.6-2.3,5.4-3.5c0.9-0.7,1.8-1.3,2.7-2
				c11.8-8,23.7-16.1,35.5-24.1c4.6-2.8,9.1-5.7,13.7-8.5c2.7-1.7,5.4-3.5,8.1-5.2c1.8-0.3,3.6-0.5,5.4-0.8c2.3,4.4,4.7,8.9,7,13.3
				c-41.3,17.8-76.2,43.5-100.5,81.9c-8.3,13.1-14.9,27.3-23.2,42.7c5.7,1.3,9.3,2.1,12.9,2.9l0,1.2
				C1002.8,634.7,1001,634.8,999.3,635z"/>
			<path class="st41" d="M993.4,579.9c-5.4,16.4-10.8,32.9-16.2,49.3c-10.5,9-21.1,18-31.6,27c-0.3-0.6-0.7-1.2-0.9-1.8
				c0.6-1.1,1.1-2.2,1.7-3.3c4.8-10,9.7-19.9,14.5-29.9c0.7-1,1.3-1.9,2-2.8c0.6-0.7,0.9-1.4,0.8-2.3c0.7-1,1.4-2.1,2.1-3.2
				C975,601.9,984.2,590.9,993.4,579.9z"/>
			<path class="st32" d="M1115.3,505.8c-2.3-4.4-4.7-8.9-7-13.3c0.3-0.6,0.3-1.2,0.2-1.8c4.8-2.7,9.5-5.4,14.3-8.1l1,0l0.7-0.7
				c9.6-3.8,19.3-7.5,28.9-11.3c0.4,0.9,0.9,1.7,1.3,2.6c-7.2,4.9-14.3,9.9-22.5,15.5c12.4-0.5,23.1-1,33.7-1.5
				c0.1,1.2,0.1,2.5,0.2,3.7C1149.2,495.9,1132.2,500.9,1115.3,505.8z"/>
			<path class="st4" d="M1135.4,466.3c-11.1,4.3-22.2,8.5-33.3,12.8c23.1-19.4,87.4-36.1,119-34.6c-25,6.5-52.7,13.7-80.5,20.9
				C1139,465.6,1137.2,466,1135.4,466.3z"/>
			<path class="st41" d="M996,576.7c-0.9,1.1-1.8,2.2-2.7,3.3C994.2,578.9,995.1,577.8,996,576.7z"/>
		</g>
	</g>
</g>
</svg>
